<?xml version="1.0" standalone="no"?>
<!DOCTYPE svg PUBLIC "-//W3C//DTD SVG 20010904//EN"
 "http://www.w3.org/TR/2001/REC-SVG-20010904/DTD/svg10.dtd">
<svg version="1.0" xmlns="http://www.w3.org/2000/svg"
 width="1024.000000pt" height="1024.000000pt" viewBox="0 0 1024.000000 1024.000000"
 preserveAspectRatio="xMidYMid meet">
<metadata>
Created by potrace 1.14, written by Peter Selinger 2001-2017
</metadata>
<g transform="translate(0.000000,1024.000000) scale(0.100000,-0.100000)"
fill="#000000" stroke="none">
<path d="M0 5120 l0 -5120 5120 0 5120 0 0 5120 0 5120 -5120 0 -5120 0 0
-5120z m3830 3661 c-5 -11 -10 -34 -10 -51 0 -33 -15 -37 -33 -8 -15 23 10 78
35 78 15 0 17 -3 8 -19z m1170 -391 c0 -8 -14 6 -30 32 -38 61 -38 73 0 22 16
-21 29 -46 30 -54z m19 -65 c0 -5 -4 -3 -9 5 -5 8 -9 22 -9 30 0 16 17 -16 18
-35z m801 16 c0 -27 -38 -71 -55 -64 -19 7 -19 33 1 61 19 27 54 30 54 3z
m-853 -88 c-2 -16 -4 -3 -4 27 0 30 2 43 4 28 2 -16 2 -40 0 -55z m60 25 c-3
-8 -6 -5 -6 6 -1 11 2 17 5 13 3 -3 4 -12 1 -19z m-83 -110 c-4 -13 -8 -34
-10 -47 l-2 -23 21 22 c20 22 21 22 28 4 4 -10 8 -13 8 -6 1 6 5 12 11 12 11
0 -16 -73 -54 -144 -14 -27 -26 -57 -26 -68 0 -10 -6 -21 -14 -24 -8 -3 -16
-19 -20 -35 -3 -17 -10 -28 -16 -24 -5 3 -10 1 -10 -6 0 -7 -9 -2 -19 10 -14
16 -21 18 -24 9 -3 -7 -6 17 -6 54 -1 88 24 153 83 219 25 28 46 55 46 60 0 5
3 9 6 9 3 0 2 -10 -2 -22z m-858 -74 c-5 -25 -71 -94 -90 -94 -4 0 -5 -7 -2
-16 4 -10 -1 -26 -11 -37 -15 -17 -15 -19 -2 -15 9 4 16 1 16 -8 0 -7 -3 -11
-6 -9 -14 8 -43 -25 -38 -44 3 -11 -1 -26 -9 -32 -12 -10 -13 -9 -8 4 3 9 1
24 -6 34 -10 16 -10 15 -5 -4 4 -14 2 -23 -4 -23 -6 0 -11 5 -11 10 0 6 -5 10
-11 10 -5 0 -7 -5 -4 -10 4 -6 -5 -20 -19 -31 -29 -23 -32 -53 -12 -109 9 -24
10 -47 4 -75 -20 -87 12 -185 69 -212 19 -9 22 -9 15 0 -11 13 10 52 21 40 4
-3 7 -1 7 5 0 7 7 12 15 12 8 0 15 -5 15 -12 0 -6 3 -9 6 -5 3 3 -1 16 -10 29
-27 38 -20 55 11 27 14 -13 23 -18 19 -11 -18 30 12 7 41 -32 40 -55 87 -78
237 -116 190 -49 325 -115 430 -211 101 -92 150 -241 129 -390 -6 -41 -14 -83
-17 -94 -5 -15 -4 -15 5 3 7 12 18 22 26 22 7 0 13 5 13 11 0 6 7 9 15 5 9 -3
15 0 15 9 0 12 35 31 51 27 4 0 13 20 20 46 20 66 16 244 -5 302 -33 88 -151
219 -251 279 -18 11 -17 12 8 6 l28 -6 -36 69 c-43 84 -44 96 -4 46 26 -32 31
-35 25 -14 -20 65 -19 80 2 80 43 0 205 -73 302 -135 130 -84 177 -154 187
-281 12 -168 -24 -342 -108 -512 -89 -179 -44 -289 165 -401 104 -55 191 -114
206 -139 9 -16 9 -16 10 1 0 9 5 17 10 17 6 0 10 -7 10 -15 0 -8 8 -15 18 -15
26 0 66 -58 91 -131 l22 -66 142 -7 c600 -28 1174 -108 1324 -185 67 -34 73
-48 73 -189 0 -124 0 -124 23 -118 167 49 353 79 482 78 85 0 112 -5 181 -30
273 -100 417 -380 383 -743 -13 -134 -30 -207 -79 -333 -114 -291 -341 -515
-643 -636 -128 -51 -263 -90 -421 -120 -82 -16 -159 -36 -171 -44 -13 -9 -31
-38 -41 -68 -60 -185 -250 -591 -351 -754 l-51 -82 82 -6 c346 -28 736 -116
864 -195 54 -34 85 -90 70 -132 -13 -38 -88 -104 -158 -139 -221 -111 -541
-173 -1225 -236 -333 -30 -1036 -47 -1410 -33 -753 28 -860 35 -1215 80 -205
27 -558 116 -708 180 -101 43 -162 107 -162 170 0 64 59 115 194 169 145 58
422 119 614 136 45 3 82 8 82 11 0 2 -42 68 -94 146 -236 360 -345 579 -467
948 -89 268 -128 429 -183 756 -58 347 -68 459 -69 798 -1 306 1 322 58 359
76 50 339 109 600 135 55 6 143 15 195 20 243 25 835 61 1017 61 148 0 144 -3
132 80 -7 49 -28 109 -44 126 -5 6 -24 26 -40 45 -38 43 -105 95 -105 81 0 -7
-13 -9 -34 -5 -19 3 -57 0 -84 -7 -43 -10 -55 -9 -83 6 -114 59 -125 175 -35
364 32 66 36 84 36 152 0 53 -6 94 -20 130 -21 58 -88 138 -114 138 -9 0 -16
5 -16 10 0 6 -6 10 -12 10 -7 0 -26 7 -43 16 -16 8 -43 17 -60 18 -16 2 -37 5
-45 8 -47 17 -100 27 -114 22 -18 -7 -22 -24 -4 -24 6 0 9 -3 6 -6 -4 -3 -16
0 -28 6 -17 9 -24 9 -29 1 -9 -15 -115 76 -204 176 -69 78 -130 186 -142 254
-6 31 -4 37 14 42 12 3 21 0 21 -6 0 -7 5 -5 10 3 7 11 10 11 10 2 0 -7 4 -11
9 -7 5 3 12 -3 14 -12 3 -10 5 3 6 28 2 70 21 159 43 203 23 45 102 126 162
164 23 15 47 33 54 39 7 7 16 13 20 13 4 0 41 32 82 70 41 38 81 67 88 65 7
-3 10 0 7 5 -3 6 -3 15 0 20 11 18 16 11 11 -16z m1363 -252 c9 -7 38 -27 65
-44 49 -32 49 -32 23 -41 -39 -13 -85 15 -108 66 -21 47 -26 86 -7 52 6 -11
19 -26 27 -33z m-400 -72 c11 -24 11 -24 -3 -6 -9 11 -16 24 -16 30 0 12 5 7
19 -24z m258 -188 c-15 -14 -27 -21 -27 -14 0 16 40 56 48 48 3 -4 -6 -19 -21
-34z m-2340 -169 c-2 -16 -4 -3 -4 27 0 30 2 43 4 28 2 -16 2 -40 0 -55z
m2814 31 c17 -21 0 -49 -32 -49 -18 0 -25 6 -27 24 -6 38 34 55 59 25z m-2361
-35 c0 -6 -4 -7 -10 -4 -5 3 -10 11 -10 16 0 6 5 7 10 4 6 -3 10 -11 10 -16z
m3080 -32 c0 -24 -33 -67 -50 -67 -16 0 -11 22 13 57 26 39 37 42 37 10z m195
-3 c22 -22 16 -78 -8 -82 -27 -5 -47 17 -47 53 0 48 23 60 55 29z m-3718 -31
c-3 -10 -5 -4 -5 12 0 17 2 24 5 18 2 -7 2 -21 0 -30z m2723 -215 c0 -11 -5
-16 -10 -13 -6 4 -23 9 -37 11 -36 7 -36 7 -12 33 20 21 22 21 40 5 10 -9 19
-26 19 -36z m-1680 -88 c0 -5 -2 -10 -4 -10 -2 0 -12 -3 -22 -7 -16 -6 -17 -5
-4 10 17 19 30 22 30 7z m-427 -221 c115 -76 151 -177 110 -310 l-17 -54 -10
72 c-11 72 -26 108 -26 62 0 -20 -2 -21 -11 -9 -8 12 -9 10 -5 -10 7 -28 -33
-152 -46 -144 -4 3 -5 -1 -2 -9 6 -18 -14 -33 -27 -20 -5 5 2 31 16 62 25 53
35 103 15 71 -17 -27 -18 -5 -4 50 19 71 11 144 -25 215 -15 30 -25 55 -21 55
4 0 28 -14 53 -31z m2464 -66 c-3 -10 -5 -2 -5 17 0 19 2 27 5 18 2 -10 2 -26
0 -35z m933 18 c0 -38 -44 -91 -76 -91 -35 0 -31 29 12 78 42 50 64 54 64 13z
m-930 -74 c0 -5 -5 -5 -11 -1 -7 4 -9 0 -5 -12 7 -23 -2 -37 -32 -53 -12 -7
-20 -16 -18 -20 3 -4 -6 -18 -19 -29 -14 -12 -25 -19 -25 -15 0 4 -7 -3 -16
-15 -8 -12 -21 -22 -29 -22 -7 0 -21 -7 -30 -16 -9 -9 -19 -14 -22 -11 -3 4
-14 2 -24 -4 -11 -5 -19 -8 -19 -5 0 2 32 22 70 45 73 43 144 121 156 168 5
18 9 21 15 11 5 -7 9 -17 9 -21z m161 -14 c-9 -16 -10 -14 -11 12 0 21 3 26
11 18 8 -8 8 -16 0 -30z m-2985 -20 c9 -34 -2 -53 -30 -53 -38 0 -62 60 -35
87 17 17 58 -5 65 -34z m-96 -114 c0 -6 -4 -7 -10 -4 -5 3 -10 11 -10 16 0 6
5 7 10 4 6 -3 10 -11 10 -16z m850 -46 c0 -19 -13 -53 -19 -53 -4 0 -6 14 -3
30 2 17 8 30 13 30 5 0 9 -3 9 -7z m2748 -34 c2 -14 -4 -31 -12 -38 -12 -10
-17 -8 -26 9 -6 11 -8 30 -5 41 9 28 39 20 43 -12z"/>
<path d="M3975 7970 c-3 -5 -1 -10 4 -10 6 0 11 5 11 10 0 6 -2 10 -4 10 -3 0
-8 -4 -11 -10z"/>
<path d="M3930 7916 c7 -7 13 -7 20 0 6 6 3 10 -10 10 -13 0 -16 -4 -10 -10z"/>
<path d="M3831 7794 c0 -11 3 -14 6 -6 3 7 2 16 -1 19 -3 4 -6 -2 -5 -13z"/>
<path d="M4338 5793 c-28 -4 -35 -19 -52 -104 -4 -18 -14 -28 -30 -31 -21 -4
-30 2 -52 38 -15 24 -31 41 -36 38 -4 -3 -8 -1 -8 4 0 13 -50 2 -50 -12 0 -6
-5 -3 -11 7 -14 23 -3 37 29 38 24 2 25 2 4 6 -13 3 -29 0 -37 -7 -10 -8 -14
-8 -17 0 -3 9 -42 9 -153 0 -83 -6 -190 -14 -240 -16 -85 -5 -123 -8 -325 -34
-100 -13 -258 -48 -265 -59 -13 -23 512 -99 820 -120 352 -24 827 -41 840 -30
5 6 3 9 -7 9 -9 0 -28 14 -42 31 -44 52 -32 167 24 227 l21 22 -193 -1 c-106
-1 -205 -4 -220 -6z"/>
<path d="M6110 5750 c-14 -15 -40 -43 -59 -64 -19 -20 -39 -36 -45 -36 -6 0
-24 -7 -40 -15 -15 -8 -31 -13 -35 -11 -3 2 -11 -2 -18 -9 -10 -11 -10 -15 0
-18 7 -3 -3 -6 -21 -6 -32 -1 -142 -51 -112 -51 12 0 12 -2 2 -9 -7 -4 -68 -9
-135 -10 -67 -1 -124 -5 -127 -8 -9 -10 511 7 680 22 167 15 420 47 520 66
124 22 232 52 219 60 -52 29 -307 73 -544 94 -281 24 -257 25 -285 -5z"/>
<path d="M2896 5567 c-11 -37 -25 -302 -26 -462 0 -151 14 -315 29 -325 14 -9
20 -39 31 -147 10 -102 61 -383 97 -538 34 -150 156 -535 203 -640 26 -60 57
-132 68 -160 33 -82 195 -413 247 -505 63 -111 105 -196 105 -212 0 -10 -19
-14 -67 -16 -189 -7 -584 -83 -723 -138 -96 -38 -111 -46 -121 -67 -15 -26 10
-60 68 -94 120 -70 664 -182 918 -189 55 -1 120 -7 145 -13 25 -5 54 -10 65
-10 17 0 16 2 -5 12 l-25 11 30 3 c17 2 57 -1 90 -6 l60 -10 -65 4 -65 3 50
-14 c117 -32 1358 -59 1600 -34 l70 7 -80 3 c-72 3 -76 4 -35 10 l45 7 -42 1
c-24 1 -43 7 -43 13 0 5 -5 7 -10 4 -20 -12 -62 -16 -74 -6 -7 6 -64 14 -127
18 -92 6 -105 9 -69 14 36 5 28 6 -39 7 -46 1 -82 4 -80 6 2 3 144 10 314 15
286 10 557 25 925 52 256 18 671 83 835 131 143 41 186 69 170 110 -11 28
-232 90 -415 117 -102 15 -348 40 -423 43 -59 3 -71 0 -82 -17 -55 -79 -70
-95 -93 -95 -24 0 -52 -21 -52 -39 0 -6 -13 -11 -30 -11 -28 0 -30 3 -30 35 0
34 1 35 40 35 29 0 40 4 40 15 0 11 -11 15 -40 15 l-40 0 0 105 0 105 -60 0
-60 0 0 40 c0 39 -1 40 -35 40 -34 0 -35 1 -35 40 l0 40 55 0 55 0 0 80 0 80
-39 0 -38 0 -7 70 c-8 88 1 150 25 173 11 10 19 21 20 25 7 93 3 297 -6 333
-12 44 -11 46 6 42 16 -5 19 0 19 31 0 33 12 48 23 29 10 -18 17 -64 9 -59 -5
3 -9 -17 -8 -45 1 -38 4 -49 16 -47 9 2 16 16 18 33 2 21 0 26 -7 16 -9 -13
-12 20 -13 144 0 22 -5 75 -10 118 -9 65 -13 77 -29 77 -14 0 -19 -7 -19 -25
0 -19 5 -25 23 -25 15 0 18 -3 9 -9 -8 -5 -11 -17 -7 -33 7 -28 -19 -63 -37
-52 -8 5 -9 -4 -6 -27 6 -38 1 -59 -13 -59 -16 0 -11 87 6 94 10 3 15 19 15
46 0 29 -4 40 -15 40 -22 0 -18 39 6 59 18 14 20 23 14 64 -7 46 -18 60 -28
35 -3 -7 -6 12 -7 42 -1 30 -4 49 -7 43 -2 -7 -10 -13 -17 -13 -22 0 -28 119
-12 222 8 51 20 173 27 271 11 168 13 180 36 203 13 13 32 24 41 24 10 0 35
17 55 38 31 31 37 45 37 80 0 35 3 42 19 42 16 0 20 11 26 80 l7 80 56 0 56 0
-39 40 c-31 32 -46 40 -75 40 -19 0 -30 -4 -24 -8 9 -5 8 -11 -2 -20 -12 -11
-14 -10 -14 6 0 17 -10 20 -109 24 -60 3 -160 2 -222 -3 -145 -10 -798 -20
-704 -10 l70 7 -64 2 c-92 3 -66 21 48 36 51 6 90 15 89 21 -2 5 -14 8 -28 7
-19 -2 -21 0 -11 7 11 7 9 10 -10 14 -13 2 28 5 91 6 63 1 124 6 135 11 12 5
-2 6 -36 3 -36 -4 -59 -2 -63 6 -5 7 7 12 36 13 38 1 39 2 10 5 -19 3 -41 2
-50 -2 -24 -9 -392 -6 -797 6 -192 6 -388 12 -435 13 -47 2 -112 8 -145 14
-33 6 -150 18 -260 27 -255 20 -651 70 -763 95 -48 11 -97 22 -108 25 -16 4
-23 -1 -28 -18z m2367 -204 c-13 -2 -33 -2 -45 0 -13 2 -3 4 22 4 25 0 35 -2
23 -4z m846 -1346 c0 -21 -1 -21 -9 -2 l-9 20 -1 -20 c-1 -12 -4 -15 -7 -7 -7
18 5 44 17 37 5 -3 10 -16 9 -28z m2 -300 c-8 -8 -11 -7 -11 4 0 20 13 34 18
19 3 -7 -1 -17 -7 -23z m49 -1351 c0 -8 -8 -13 -17 -11 -10 2 -28 4 -40 4 -41
2 -24 21 17 21 28 0 40 -4 40 -14z m40 4 c-20 -13 -33 -13 -25 0 3 6 14 10 23
10 15 0 15 -2 2 -10z m140 -24 c0 -3 -22 -6 -50 -6 -38 0 -50 -4 -50 -15 0
-16 -36 -20 -59 -6 -9 6 -10 11 -2 15 6 4 15 5 20 1 5 -3 17 2 26 12 32 32
115 31 115 -1z m-5 -36 c-11 -5 -29 -8 -40 -8 -16 0 -15 2 5 8 34 11 60 11 35
0z m-232 -7 c-13 -2 -33 -2 -45 0 -13 2 -3 4 22 4 25 0 35 -2 23 -4z m5 -20
c-10 -2 -28 -2 -40 0 -13 2 -5 4 17 4 22 1 32 -1 23 -4z m-100 -10 c-15 -2
-42 -2 -60 0 -18 2 -6 4 27 4 33 0 48 -2 33 -4z m-2369 -99 c8 -7 -74 -2 -99
6 -16 5 -2 6 35 3 33 -3 62 -7 64 -9z m286 -20 c28 -4 57 -11 65 -16 10 -6 3
-8 -24 -4 -24 3 -43 0 -51 -8 -15 -15 -107 -13 -148 3 -16 6 -42 11 -58 11
-17 0 -28 4 -24 9 3 5 -5 12 -17 15 -29 6 190 -2 257 -10z m48 -41 c-7 -2 -19
-2 -25 0 -7 3 -2 5 12 5 14 0 19 -2 13 -5z m60 0 c-7 -2 -19 -2 -25 0 -7 3 -2
5 12 5 14 0 19 -2 13 -5z m-77 -21 c-16 -2 -32 0 -37 5 -5 5 7 7 29 4 34 -5
35 -6 8 -9z m-71 -12 c17 -7 15 -9 -12 -9 -18 -1 -33 4 -33 9 0 12 17 12 45 0z"/>
<path d="M4997 5532 c-9 -10 -17 -22 -17 -25 0 -4 116 -7 258 -6 141 1 243 4
226 8 -17 4 -36 11 -42 15 -7 4 -12 2 -12 -3 0 -14 -208 -15 -243 -2 -41 16
-137 21 -138 8 0 -7 -4 -4 -8 6 -6 18 -7 18 -24 -1z"/>
<path d="M5547 5403 c18 -2 50 -2 70 0 21 2 7 4 -32 4 -38 0 -55 -2 -38 -4z"/>
<path d="M5658 5383 c7 -3 16 -2 19 1 4 3 -2 6 -13 5 -11 0 -14 -3 -6 -6z"/>
<path d="M2833 5210 c-1 -69 2 -147 7 -175 7 -48 7 -47 7 25 1 41 -3 120 -7
175 l-7 100 0 -125z"/>
<path d="M7245 5299 c-4 -6 -4 -13 -1 -16 3 -4 6 -1 6 5 0 6 8 13 18 15 15 4
15 5 0 6 -9 0 -20 -4 -23 -10z"/>
<path d="M5298 5283 c6 -2 18 -2 25 0 6 3 1 5 -13 5 -14 0 -19 -2 -12 -5z"/>
<path d="M5378 5273 c12 -2 32 -2 45 0 12 2 2 4 -23 4 -25 0 -35 -2 -22 -4z"/>
<path d="M6416 5200 c1 -57 14 -63 14 -7 0 26 -3 47 -7 47 -5 0 -8 -18 -7 -40z"/>
<path d="M7562 5069 c-82 -16 -151 -56 -234 -136 -114 -111 -117 -116 -133
-240 -30 -224 -45 -323 -75 -480 -16 -89 -30 -169 -30 -179 0 -15 10 -16 98
-11 120 7 231 36 342 89 71 34 100 55 175 132 77 78 97 107 142 196 76 156 97
276 70 406 -37 177 -169 260 -355 223z"/>
<path d="M7235 4999 c-4 -6 -5 -12 -2 -15 2 -3 7 2 10 11 7 17 1 20 -8 4z"/>
<path d="M8021 4624 c0 -11 3 -14 6 -6 3 7 2 16 -1 19 -3 4 -6 -2 -5 -13z"/>
<path d="M7991 4524 c0 -11 3 -14 6 -6 3 7 2 16 -1 19 -3 4 -6 -2 -5 -13z"/>
<path d="M7967 4455 c-22 -63 -20 -70 4 -20 l20 40 -5 -35 c-5 -32 -5 -33 4
-9 7 15 7 35 2 49 -8 22 -10 20 -25 -25z"/>
<path d="M7900 4326 c-23 -36 -48 -70 -55 -76 -8 -6 -11 -18 -8 -26 6 -17 23
-19 23 -3 0 19 32 79 42 79 5 0 6 -5 2 -12 -4 -7 -3 -8 5 -4 6 4 9 16 6 25 -3
10 3 28 15 41 18 21 26 40 16 40 -2 0 -23 -29 -46 -64z"/>
<path d="M7962 4365 c0 -16 2 -22 5 -12 2 9 2 23 0 30 -3 6 -5 -1 -5 -18z"/>
<path d="M7938 4324 c-8 -8 3 -44 13 -44 5 0 8 9 6 20 -4 23 -11 32 -19 24z"/>
<path d="M7973 4305 c-3 -9 -3 -18 -1 -21 3 -3 8 4 11 16 6 23 -1 27 -10 5z"/>
<path d="M7880 4260 c0 -5 5 -10 10 -10 6 0 10 5 10 10 0 6 -4 10 -10 10 -5 0
-10 -4 -10 -10z"/>
<path d="M7925 4260 c-3 -5 -2 -10 4 -10 5 0 13 5 16 10 3 6 2 10 -4 10 -5 0
-13 -4 -16 -10z"/>
<path d="M6101 4233 c-2 -30 22 -167 35 -201 8 -20 12 -26 9 -12 -3 14 -13 66
-21 115 -15 91 -22 120 -23 98z"/>
<path d="M6268 4233 c7 -3 16 -2 19 1 4 3 -2 6 -13 5 -11 0 -14 -3 -6 -6z"/>
<path d="M7799 4193 l-24 -28 28 24 c25 23 32 31 24 31 -2 0 -14 -12 -28 -27z"/>
<path d="M7753 4157 c-15 -24 -108 -95 -158 -120 -124 -63 -246 -98 -385 -111
-84 -9 -150 -26 -152 -40 -4 -31 -8 -74 -10 -98 -1 -15 -5 -25 -8 -23 -4 3
-10 -8 -13 -23 -3 -15 -8 -36 -11 -47 -4 -11 0 -6 8 10 8 17 15 24 16 18 0 -7
5 -13 11 -13 6 0 26 -7 45 -16 19 -9 38 -14 41 -10 3 3 1 6 -5 6 -19 0 -14 17
7 23 14 3 18 1 14 -9 -3 -10 3 -13 25 -11 17 1 28 6 25 10 -2 4 8 5 24 2 22
-5 25 -4 13 4 -8 6 -28 9 -45 6 -29 -5 -29 -5 -7 7 17 8 34 9 60 2 26 -7 50
-6 82 2 l45 13 -51 -6 c-57 -6 -108 10 -61 19 15 3 24 1 21 -3 -8 -13 9 -11
51 7 20 8 34 11 31 6 -6 -11 23 -26 32 -17 3 3 0 5 -6 5 -7 0 -12 5 -12 10 0
6 16 10 35 10 19 0 35 5 35 10 0 6 8 10 18 10 14 0 15 -2 2 -10 -24 -16 9 -12
45 5 l30 14 -29 -6 c-40 -8 -26 12 19 27 19 6 35 15 35 20 0 5 15 16 34 25 19
9 42 25 52 36 9 10 21 19 26 19 11 0 48 38 48 49 0 5 -9 11 -20 14 -17 4 -18
9 -9 35 8 22 7 37 -1 53 -11 20 -11 21 16 15 24 -6 26 -5 14 9 -11 13 -10 14
5 9 12 -5 16 -4 11 4 -4 6 1 23 10 37 9 14 14 25 11 25 -3 0 -10 -6 -14 -13z
m-88 -107 c-10 -11 -22 -20 -28 -20 -5 0 1 9 14 20 31 25 37 25 14 0z"/>
<path d="M7845 4069 c-4 -6 -5 -12 -2 -15 2 -3 7 2 10 11 7 17 1 20 -8 4z"/>
<path d="M7775 4050 c-3 -5 -4 -14 0 -20 8 -13 35 -1 35 16 0 16 -26 19 -35 4z"/>
<path d="M7747 4033 c-11 -10 -8 -41 4 -49 6 -3 14 -2 18 2 9 11 -13 57 -22
47z"/>
<path d="M6196 3730 c3 -19 7 -66 10 -104 2 -37 10 -78 17 -90 12 -21 12 -21
15 4 4 24 -21 151 -39 200 -8 21 -8 19 -3 -10z"/>
<path d="M7068 3673 c6 -2 18 -2 25 0 6 3 1 5 -13 5 -14 0 -19 -2 -12 -5z"/>
<path d="M6138 3637 c-2 -20 -1 -37 3 -37 13 0 18 30 10 52 -7 20 -9 18 -13
-15z"/>
<path d="M6253 3285 c0 -27 2 -38 4 -22 2 15 2 37 0 50 -2 12 -4 0 -4 -28z"/>
<path d="M6242 3203 c1 -18 5 -33 10 -33 4 0 8 -9 8 -20 0 -11 5 -20 11 -20
11 0 6 20 -17 74 l-13 31 1 -32z"/>
<path d="M6369 3192 c-13 -15 -38 -37 -54 -49 -17 -12 -25 -22 -18 -22 14 -1
110 85 102 93 -3 3 -16 -7 -30 -22z"/>
</g>
</svg>
