<svg width="600" height="450" viewBox="0 0 600 450" fill="none" xmlns="http://www.w3.org/2000/svg">
<g clip-path="url(#clip0_1_2)">
<path d="M600 0H0V450H600V0Z" fill="url(#paint0_radial_1_2)"/>
<path d="M497.365 316.505C496.161 316.505 494.958 316.194 493.884 315.574L482.148 308.798C481.467 308.405 481.06 307.701 481.06 306.915C481.06 306.13 481.467 305.426 482.148 305.033L493.884 298.257C496.03 297.018 498.699 297.017 500.846 298.257L512.583 305.033C513.264 305.426 513.671 306.13 513.671 306.915C513.671 307.701 513.264 308.405 512.583 308.798L500.847 315.574C499.773 316.194 498.569 316.505 497.365 316.505ZM497.365 299.188C496.482 299.188 495.6 299.415 494.813 299.869L483.077 306.645C482.941 306.724 482.921 306.849 482.921 306.915C482.921 306.982 482.942 307.107 483.077 307.187L494.814 313.963H494.815C496.387 314.871 498.342 314.871 499.917 313.963L511.653 307.187C511.789 307.108 511.809 306.983 511.809 306.915C511.809 306.849 511.788 306.724 511.653 306.645L499.916 299.869C499.128 299.414 498.246 299.188 497.365 299.188Z" fill="url(#paint1_linear_1_2)"/>
<path d="M463.797 278.054C461.841 278.054 459.886 277.551 458.142 276.543L437.944 264.881C436.982 264.326 436.408 263.333 436.408 262.223C436.408 261.113 436.982 260.119 437.944 259.565L458.141 247.904C461.627 245.889 465.963 245.888 469.452 247.904L489.651 259.565C490.612 260.12 491.186 261.113 491.186 262.222C491.186 263.332 490.613 264.326 489.652 264.882L469.453 276.543C467.709 277.55 465.752 278.054 463.797 278.054ZM459.072 274.932C461.988 276.614 465.607 276.614 468.523 274.932L488.721 263.271C489.266 262.956 489.324 262.433 489.324 262.223C489.324 262.013 489.265 261.492 488.721 261.176L468.522 249.515C465.606 247.833 461.987 247.833 459.071 249.515L438.874 261.176C438.329 261.491 438.269 262.013 438.269 262.223C438.269 262.433 438.329 262.955 438.874 263.27L459.072 274.932Z" fill="url(#paint2_linear_1_2)"/>
<path d="M102.575 296.406C100.619 296.406 98.6641 295.903 96.9201 294.895L76.7201 283.234C75.7581 282.678 75.1851 281.684 75.1851 280.574C75.1851 279.465 75.7591 278.471 76.7201 277.917L96.9181 266.256C100.405 264.24 104.741 264.24 108.229 266.256L128.427 277.918C129.389 278.473 129.963 279.466 129.963 280.576C129.963 281.686 129.389 282.68 128.427 283.234L108.23 294.895C106.487 295.902 104.53 296.406 102.575 296.406ZM102.574 266.606C100.94 266.606 99.3061 267.027 97.8481 267.868L77.6501 279.529C77.1051 279.844 77.0461 280.366 77.0461 280.576C77.0461 280.786 77.1051 281.308 77.6511 281.624L97.8491 293.285C100.765 294.967 104.384 294.967 107.3 293.285L127.497 281.624C128.043 281.309 128.101 280.787 128.101 280.577C128.101 280.367 128.042 279.846 127.497 279.53L107.299 267.868C105.841 267.026 104.207 266.606 102.574 266.606Z" fill="url(#paint3_linear_1_2)"/>
<path opacity="0.6" d="M307.12 347.28L162.69 263.893C160.585 262.678 160.849 260.555 163.28 259.151L255.977 205.632C258.408 204.229 262.085 204.076 264.19 205.292L408.62 288.68C410.725 289.896 410.461 292.019 408.03 293.422L315.333 346.94C312.903 348.344 309.225 348.496 307.12 347.28Z" fill="#020230"/>
<path d="M310.429 362.335C308.74 362.335 307.121 361.984 305.884 361.27H305.885L141.047 266.101C139.7 265.325 138.959 264.204 138.959 262.946C138.959 261.501 139.965 260.091 141.719 259.078L254.083 193.246C257.165 191.466 261.692 191.295 264.393 192.854L429.23 288.024C430.577 288.8 431.318 289.922 431.318 291.179C431.318 292.624 430.312 294.033 428.557 295.046L316.194 360.878C314.523 361.843 312.428 362.335 310.429 362.335ZM259.87 193.657C258.182 193.657 256.388 194.064 255.019 194.853L142.656 260.685C141.505 261.35 140.821 262.194 140.821 262.944C140.821 263.669 141.45 264.184 141.977 264.489L306.815 359.658H306.816C308.92 360.875 312.788 360.697 315.257 359.269L427.621 293.437C428.772 292.772 429.456 291.929 429.456 291.178C429.456 290.454 428.827 289.939 428.3 289.634L263.463 194.464C262.523 193.923 261.231 193.657 259.87 193.657Z" fill="url(#paint4_linear_1_2)"/>
<path d="M446.989 148.881L303.128 65.822C302.139 65.251 301.107 65.133 300.192 65.4L300.191 65.401C300.187 65.402 300.182 65.404 300.178 65.405L297.514 66.333L298.452 66.555C298.076 67 297.773 67.552 297.574 68.2L265.04 173.831C264.234 176.45 265.415 179.633 267.677 180.939L411.539 263.998C411.889 264.2 412.244 264.339 412.597 264.43L412.241 265.206L414.786 264.312L414.78 264.31C415.822 263.895 416.681 262.964 417.095 261.619L449.629 155.988C450.432 153.369 449.251 150.187 446.989 148.881Z" fill="url(#paint5_radial_1_2)"/>
<path d="M406.388 267.942L406.439 268.003L264.341 185.963C262.251 184.756 258.599 184.908 256.186 186.301L164.377 239.307L161.316 238.138L162.176 242.433L162.18 242.431C162.294 243.077 162.746 243.682 163.558 244.151L306.97 326.95C309.06 328.157 312.712 328.005 315.125 326.612L407.168 273.471C408.304 272.815 408.957 272.002 409.119 271.198L409.124 271.204L410.002 267.024L406.388 267.942Z" fill="url(#paint6_radial_1_2)"/>
<path d="M307.12 323.17L162.69 239.783C160.585 238.568 160.849 236.445 163.28 235.041L255.977 181.523C258.408 180.12 262.085 179.967 264.19 181.183L408.62 264.57C410.725 265.785 410.461 267.909 408.03 269.312L315.333 322.83C312.903 324.233 309.225 324.386 307.12 323.17Z" fill="url(#paint7_radial_1_2)"/>
<path d="M408.03 268.187L315.333 321.705C312.902 323.109 309.225 323.261 307.12 322.046L162.69 238.659C161.973 238.245 161.552 237.722 161.377 237.161C161.098 238.129 161.506 239.1 162.69 239.783L307.121 323.17C309.226 324.385 312.903 324.233 315.334 322.83L408.031 269.312C409.634 268.387 410.273 267.152 409.934 266.068C409.716 266.821 409.094 267.573 408.03 268.187Z" fill="white"/>
<g opacity="0.4">
<path d="M231.581 226.251L226.705 223.436C226.313 223.21 226.363 222.815 226.815 222.554L232.57 219.231C233.022 218.97 233.706 218.942 234.098 219.168L238.974 221.983C239.366 222.209 239.316 222.604 238.864 222.865L233.108 226.188C232.657 226.449 231.973 226.477 231.581 226.251Z" fill="#06033E"/>
<path d="M239.111 230.599L234.235 227.784C233.843 227.558 233.893 227.163 234.345 226.902L240.101 223.579C240.553 223.318 241.237 223.29 241.628 223.516L246.504 226.331C246.896 226.557 246.846 226.952 246.394 227.213L240.639 230.536C240.187 230.796 239.503 230.825 239.111 230.599Z" fill="#06033E"/>
<path d="M246.642 234.946L241.766 232.131C241.375 231.905 241.424 231.51 241.876 231.249L247.632 227.926C248.084 227.665 248.768 227.637 249.159 227.863L254.035 230.678C254.426 230.904 254.377 231.299 253.925 231.56L248.169 234.883C247.717 235.144 247.033 235.172 246.642 234.946Z" fill="#06033E"/>
<path d="M257.057 231.356L252.181 228.541C251.789 228.315 251.839 227.92 252.291 227.659L257.122 224.87C257.574 224.609 258.258 224.581 258.649 224.807L263.525 227.622C263.916 227.848 263.867 228.243 263.415 228.504L258.584 231.293C258.132 231.554 257.448 231.582 257.057 231.356Z" fill="#06033E"/>
<path d="M264.587 235.704L259.711 232.889C259.319 232.663 259.369 232.268 259.821 232.007L264.653 229.218C265.105 228.957 265.789 228.929 266.18 229.155L271.056 231.97C271.448 232.196 271.398 232.591 270.946 232.852L266.114 235.641C265.662 235.901 264.978 235.93 264.587 235.704Z" fill="#06033E"/>
<path d="M272.117 240.051L267.241 237.236C266.849 237.01 266.899 236.615 267.351 236.354L272.183 233.565C272.635 233.304 273.319 233.276 273.71 233.502L278.586 236.317C278.978 236.543 278.928 236.938 278.476 237.199L273.644 239.988C273.193 240.249 272.509 240.277 272.117 240.051Z" fill="#06033E"/>
<path d="M279.647 244.399L274.771 241.584C274.379 241.358 274.429 240.963 274.881 240.702L279.712 237.913C280.164 237.652 280.848 237.624 281.239 237.85L286.115 240.665C286.507 240.891 286.457 241.286 286.005 241.547L281.174 244.336C280.723 244.596 280.039 244.625 279.647 244.399Z" fill="#06033E"/>
<path d="M287.178 248.746L282.302 245.931C281.91 245.705 281.96 245.31 282.412 245.049L287.244 242.26C287.696 241.999 288.38 241.971 288.771 242.197L293.647 245.012C294.038 245.238 293.989 245.633 293.537 245.894L288.706 248.683C288.253 248.944 287.569 248.972 287.178 248.746Z" fill="#06033E"/>
<path d="M294.708 253.094L289.832 250.279C289.44 250.053 289.49 249.658 289.942 249.397L294.773 246.608C295.225 246.347 295.909 246.319 296.3 246.545L301.176 249.36C301.567 249.586 301.518 249.981 301.066 250.242L296.235 253.031C295.783 253.292 295.099 253.32 294.708 253.094Z" fill="#06033E"/>
<path d="M302.238 257.442L297.362 254.627C296.97 254.401 297.02 254.006 297.472 253.745L302.303 250.956C302.755 250.695 303.439 250.667 303.83 250.893L308.706 253.708C309.097 253.934 309.048 254.329 308.596 254.59L303.764 257.379C303.314 257.639 302.63 257.668 302.238 257.442Z" fill="#06033E"/>
<path d="M309.768 261.789L304.892 258.974C304.501 258.748 304.55 258.353 305.002 258.092L309.834 255.303C310.286 255.042 310.97 255.014 311.361 255.24L316.237 258.055C316.629 258.281 316.579 258.676 316.127 258.937L311.295 261.726C310.844 261.987 310.16 262.015 309.768 261.789Z" fill="#06033E"/>
<path d="M317.299 266.137L312.423 263.322C312.032 263.096 312.081 262.701 312.533 262.44L317.365 259.651C317.817 259.39 318.501 259.362 318.892 259.588L323.768 262.403C324.16 262.629 324.11 263.024 323.658 263.285L318.827 266.074C318.374 266.335 317.69 266.363 317.299 266.137Z" fill="#06033E"/>
<path d="M324.829 270.484L319.953 267.669C319.561 267.443 319.611 267.048 320.063 266.787L324.894 263.998C325.346 263.737 326.03 263.709 326.421 263.935L331.297 266.75C331.688 266.976 331.639 267.371 331.187 267.632L326.355 270.422C325.904 270.682 325.22 270.71 324.829 270.484Z" fill="#06033E"/>
<path d="M268.152 229.298L263.276 226.483C262.884 226.257 262.934 225.862 263.386 225.601L268.217 222.812C268.669 222.551 269.353 222.523 269.745 222.749L274.621 225.564C275.012 225.79 274.963 226.185 274.511 226.446L269.68 229.235C269.227 229.495 268.543 229.524 268.152 229.298Z" fill="#06033E"/>
<path d="M260.509 224.885L255.633 222.07C255.242 221.844 255.291 221.449 255.743 221.188L260.574 218.398C261.026 218.137 261.71 218.109 262.102 218.335L266.978 221.15C267.37 221.376 267.32 221.771 266.868 222.032L262.037 224.821C261.585 225.083 260.901 225.111 260.509 224.885Z" fill="#06033E"/>
<path d="M252.854 220.465L242.352 214.402C241.961 214.176 242.01 213.781 242.462 213.52L247.293 210.731C247.745 210.47 248.429 210.442 248.82 210.668L259.322 216.731C259.714 216.957 259.664 217.352 259.212 217.613L254.381 220.402C253.93 220.663 253.246 220.691 252.854 220.465Z" fill="#06033E"/>
<path d="M258.205 215.09L249.682 210.169C249.29 209.943 249.34 209.548 249.792 209.287L254.623 206.497C255.075 206.236 255.759 206.208 256.15 206.434L264.673 211.355C265.064 211.581 265.015 211.976 264.563 212.237L259.732 215.026C259.28 215.288 258.596 215.317 258.205 215.09Z" fill="#06033E"/>
<path d="M275.682 233.645L270.806 230.83C270.414 230.604 270.464 230.209 270.916 229.948L275.747 227.158C276.199 226.897 276.883 226.869 277.274 227.095L282.15 229.91C282.541 230.136 282.492 230.531 282.04 230.792L277.209 233.581C276.758 233.843 276.074 233.871 275.682 233.645Z" fill="#06033E"/>
<path d="M283.212 237.993L278.336 235.178C277.945 234.952 277.994 234.557 278.446 234.296L283.277 231.506C283.729 231.245 284.413 231.217 284.804 231.443L289.68 234.258C290.072 234.484 290.022 234.879 289.57 235.14L284.738 237.929C284.288 238.191 283.604 238.219 283.212 237.993Z" fill="#06033E"/>
<path d="M290.743 242.34L285.867 239.525C285.475 239.299 285.525 238.904 285.977 238.643L290.809 235.854C291.261 235.593 291.945 235.565 292.336 235.791L297.212 238.606C297.604 238.832 297.554 239.227 297.102 239.488L292.27 242.277C291.818 242.538 291.134 242.566 290.743 242.34Z" fill="#06033E"/>
<path d="M298.273 246.688L293.397 243.873C293.005 243.647 293.055 243.252 293.507 242.991L298.339 240.202C298.791 239.941 299.475 239.913 299.866 240.139L304.742 242.954C305.133 243.18 305.084 243.575 304.632 243.836L299.801 246.625C299.348 246.886 298.664 246.914 298.273 246.688Z" fill="#06033E"/>
<path d="M305.803 251.036L300.927 248.221C300.536 247.995 300.585 247.6 301.037 247.339L305.868 244.55C306.32 244.289 307.004 244.261 307.395 244.487L312.271 247.302C312.662 247.528 312.613 247.923 312.161 248.184L307.329 250.973C306.879 251.233 306.195 251.262 305.803 251.036Z" fill="#06033E"/>
<path d="M313.333 255.383L308.457 252.568C308.065 252.342 308.115 251.947 308.567 251.686L313.399 248.897C313.851 248.636 314.535 248.608 314.926 248.834L319.802 251.649C320.194 251.875 320.144 252.27 319.692 252.531L314.86 255.32C314.409 255.581 313.725 255.609 313.333 255.383Z" fill="#06033E"/>
<path d="M320.864 259.731L315.988 256.916C315.596 256.69 315.646 256.295 316.098 256.034L320.93 253.245C321.382 252.984 322.066 252.956 322.457 253.182L327.333 255.997C327.725 256.223 327.675 256.618 327.223 256.879L322.392 259.668C321.939 259.928 321.255 259.957 320.864 259.731Z" fill="#06033E"/>
<path d="M328.394 264.078L323.518 261.263C323.126 261.037 323.176 260.642 323.628 260.381L328.46 257.592C328.912 257.331 329.596 257.303 329.987 257.529L334.863 260.344C335.255 260.57 335.205 260.965 334.753 261.226L329.922 264.015C329.47 264.276 328.786 264.305 328.394 264.078Z" fill="#06033E"/>
<path d="M335.924 268.426L331.048 265.611C330.657 265.385 330.706 264.99 331.158 264.729L335.989 261.94C336.441 261.679 337.125 261.651 337.517 261.877L342.393 264.692C342.784 264.918 342.735 265.313 342.283 265.574L337.452 268.363C337 268.624 336.316 268.652 335.924 268.426Z" fill="#06033E"/>
<path d="M349.311 276.155L338.672 270.012C338.281 269.786 338.33 269.391 338.782 269.13L343.614 266.34C344.066 266.079 344.75 266.051 345.141 266.277L355.78 272.42C356.172 272.646 356.122 273.041 355.67 273.302L350.839 276.091C350.387 276.353 349.703 276.381 349.311 276.155Z" fill="#06033E"/>
<path d="M363.972 267.691L354.992 262.506C354.6 262.28 354.65 261.885 355.102 261.624L359.934 258.835C360.386 258.574 361.07 258.546 361.461 258.772L370.441 263.957C370.832 264.183 370.783 264.578 370.331 264.839L365.499 267.628C365.047 267.889 364.363 267.917 363.972 267.691Z" fill="#06033E"/>
<path d="M288.869 232.795L283.993 229.98C283.601 229.754 283.651 229.359 284.103 229.098L288.934 226.309C289.386 226.048 290.07 226.02 290.462 226.246L295.338 229.061C295.73 229.287 295.68 229.682 295.228 229.943L290.397 232.732C289.945 232.992 289.261 233.021 288.869 232.795Z" fill="#06033E"/>
<path d="M281.152 228.339L276.276 225.524C275.884 225.298 275.934 224.903 276.386 224.642L281.218 221.853C281.67 221.592 282.354 221.564 282.745 221.79L287.621 224.605C288.013 224.831 287.963 225.226 287.511 225.487L282.679 228.276C282.227 228.536 281.543 228.565 281.152 228.339Z" fill="#06033E"/>
<path d="M273.434 223.883L268.558 221.068C268.166 220.842 268.216 220.447 268.668 220.186L273.5 217.397C273.952 217.136 274.636 217.108 275.027 217.334L279.903 220.149C280.295 220.375 280.245 220.77 279.793 221.031L274.962 223.82C274.509 224.081 273.826 224.109 273.434 223.883Z" fill="#06033E"/>
<path d="M265.717 219.427L260.841 216.612C260.45 216.386 260.499 215.991 260.951 215.73L265.782 212.941C266.234 212.68 266.918 212.652 267.309 212.878L272.185 215.693C272.576 215.919 272.527 216.314 272.075 216.575L267.243 219.364C266.792 219.625 266.108 219.653 265.717 219.427Z" fill="#06033E"/>
<path d="M296.4 237.142L291.524 234.327C291.132 234.101 291.182 233.706 291.634 233.445L296.466 230.655C296.918 230.394 297.602 230.366 297.993 230.592L302.869 233.407C303.261 233.633 303.211 234.028 302.759 234.289L297.927 237.079C297.475 237.34 296.791 237.368 296.4 237.142Z" fill="#06033E"/>
<path d="M303.93 241.49L299.054 238.675C298.662 238.449 298.712 238.054 299.164 237.793L303.995 235.004C304.447 234.743 305.131 234.715 305.522 234.941L310.398 237.756C310.79 237.982 310.74 238.377 310.288 238.638L305.456 241.428C305.005 241.688 304.321 241.716 303.93 241.49Z" fill="#06033E"/>
<path d="M311.46 245.837L306.584 243.022C306.192 242.796 306.242 242.401 306.694 242.14L311.525 239.35C311.977 239.089 312.661 239.061 313.053 239.287L317.929 242.102C318.32 242.328 318.271 242.723 317.819 242.984L312.988 245.773C312.535 246.035 311.852 246.063 311.46 245.837Z" fill="#06033E"/>
<path d="M318.99 250.185L314.114 247.37C313.722 247.144 313.772 246.749 314.224 246.488L319.055 243.698C319.507 243.437 320.191 243.409 320.582 243.635L325.458 246.45C325.85 246.676 325.8 247.071 325.348 247.332L320.517 250.122C320.066 250.383 319.382 250.411 318.99 250.185Z" fill="#06033E"/>
<path d="M326.521 254.533L321.645 251.718C321.253 251.492 321.303 251.097 321.755 250.836L326.586 248.047C327.038 247.786 327.722 247.758 328.113 247.984L332.989 250.799C333.381 251.025 333.331 251.42 332.879 251.681L328.047 254.471C327.596 254.73 326.912 254.759 326.521 254.533Z" fill="#06033E"/>
<path d="M334.051 258.88L329.175 256.065C328.783 255.839 328.833 255.444 329.285 255.183L334.117 252.393C334.569 252.132 335.253 252.104 335.644 252.33L340.52 255.145C340.912 255.371 340.862 255.766 340.41 256.027L335.578 258.816C335.126 259.078 334.442 259.106 334.051 258.88Z" fill="#06033E"/>
<path d="M341.581 263.228L336.705 260.413C336.314 260.187 336.363 259.792 336.815 259.531L341.647 256.742C342.099 256.481 342.783 256.453 343.174 256.679L348.05 259.494C348.441 259.72 348.392 260.115 347.94 260.376L343.109 263.165C342.657 263.426 341.973 263.454 341.581 263.228Z" fill="#06033E"/>
<path d="M349.112 267.575L344.236 264.76C343.845 264.534 343.894 264.139 344.346 263.878L349.178 261.089C349.63 260.828 350.314 260.8 350.705 261.026L355.581 263.841C355.972 264.067 355.923 264.462 355.471 264.723L350.639 267.512C350.187 267.773 349.503 267.801 349.112 267.575Z" fill="#06033E"/>
<path d="M356.642 271.923L351.766 269.108C351.374 268.882 351.424 268.487 351.876 268.226L356.707 265.437C357.159 265.176 357.843 265.148 358.234 265.374L363.11 268.189C363.502 268.415 363.453 268.81 363 269.071L358.168 271.861C357.717 272.121 357.033 272.149 356.642 271.923Z" fill="#06033E"/>
<path d="M284.904 222.041L280.028 219.226C279.636 219 279.686 218.605 280.138 218.344L284.969 215.555C285.421 215.294 286.105 215.266 286.497 215.492L291.373 218.307C291.765 218.533 291.715 218.928 291.263 219.189L286.432 221.978C285.979 222.239 285.296 222.267 284.904 222.041Z" fill="#06033E"/>
<path d="M277.411 217.715L272.535 214.9C272.144 214.674 272.193 214.279 272.645 214.018L277.476 211.228C277.928 210.967 278.612 210.939 279.004 211.165L283.88 213.98C284.272 214.206 284.222 214.601 283.77 214.862L278.939 217.651C278.487 217.913 277.803 217.941 277.411 217.715Z" fill="#06033E"/>
<path d="M269.919 213.389L265.043 210.574C264.652 210.348 264.701 209.953 265.153 209.692L269.984 206.902C270.436 206.641 271.12 206.613 271.511 206.839L276.387 209.654C276.778 209.88 276.729 210.275 276.277 210.536L271.446 213.326C270.994 213.587 270.31 213.615 269.919 213.389Z" fill="#06033E"/>
<path d="M262.426 209.063L257.55 206.248C257.159 206.022 257.208 205.627 257.66 205.366L262.491 202.577C262.943 202.316 263.627 202.288 264.018 202.514L268.894 205.329C269.286 205.555 269.237 205.95 268.784 206.211L263.953 209C263.501 209.261 262.817 209.289 262.426 209.063Z" fill="#06033E"/>
<path d="M270.131 204.615L265.255 201.8C264.863 201.574 264.913 201.179 265.365 200.918L266.962 199.996C267.414 199.735 268.098 199.707 268.489 199.933L273.365 202.748C273.757 202.974 273.707 203.369 273.255 203.63L271.658 204.552C271.206 204.812 270.522 204.841 270.131 204.615Z" fill="#06033E"/>
<path d="M279.909 210.26L275.033 207.445C274.642 207.219 274.691 206.824 275.143 206.563L276.74 205.641C277.192 205.38 277.876 205.352 278.267 205.578L283.143 208.393C283.535 208.619 283.485 209.014 283.033 209.275L281.436 210.197C280.984 210.458 280.3 210.486 279.909 210.26Z" fill="#06033E"/>
<path d="M287.37 214.568L282.494 211.753C282.102 211.527 282.152 211.132 282.604 210.871L284.201 209.949C284.653 209.688 285.337 209.66 285.729 209.886L290.605 212.701C290.996 212.927 290.947 213.322 290.495 213.583L288.898 214.505C288.446 214.766 287.762 214.794 287.37 214.568Z" fill="#06033E"/>
<path d="M294.832 218.876L289.956 216.061C289.565 215.835 289.614 215.44 290.066 215.179L291.663 214.257C292.115 213.996 292.799 213.968 293.19 214.194L298.066 217.009C298.458 217.235 298.408 217.63 297.956 217.891L296.359 218.813C295.907 219.074 295.223 219.102 294.832 218.876Z" fill="#06033E"/>
<path d="M302.293 223.184L297.417 220.369C297.026 220.143 297.075 219.748 297.527 219.487L299.124 218.565C299.576 218.304 300.26 218.276 300.651 218.502L305.527 221.317C305.919 221.543 305.869 221.938 305.417 222.199L303.82 223.121C303.369 223.382 302.685 223.41 302.293 223.184Z" fill="#06033E"/>
<path d="M343.95 247.235L339.074 244.42C338.683 244.194 338.732 243.799 339.184 243.538L340.781 242.616C341.233 242.355 341.917 242.327 342.308 242.553L347.184 245.368C347.576 245.594 347.526 245.989 347.074 246.25L345.477 247.172C345.026 247.432 344.342 247.461 343.95 247.235Z" fill="#06033E"/>
<path d="M351.412 251.542L346.536 248.727C346.144 248.501 346.194 248.106 346.646 247.845L348.243 246.923C348.695 246.662 349.379 246.634 349.771 246.86L354.647 249.675C355.039 249.901 354.989 250.296 354.537 250.557L352.94 251.479C352.487 251.74 351.803 251.769 351.412 251.542Z" fill="#06033E"/>
<path d="M358.874 255.85L353.998 253.035C353.606 252.809 353.656 252.414 354.108 252.153L355.705 251.231C356.157 250.97 356.841 250.942 357.232 251.168L362.108 253.983C362.499 254.209 362.45 254.604 361.998 254.865L360.401 255.787C359.949 256.048 359.265 256.077 358.874 255.85Z" fill="#06033E"/>
<path d="M366.335 260.158L361.459 257.343C361.067 257.117 361.117 256.722 361.569 256.461L363.166 255.539C363.618 255.278 364.302 255.25 364.693 255.476L369.569 258.291C369.961 258.517 369.911 258.912 369.459 259.173L367.862 260.095C367.41 260.356 366.727 260.384 366.335 260.158Z" fill="#06033E"/>
<path d="M292.434 226.389L287.558 223.574C287.167 223.348 287.216 222.953 287.668 222.692L292.499 219.903C292.951 219.642 293.635 219.614 294.026 219.84L298.902 222.655C299.293 222.881 299.244 223.276 298.792 223.537L293.961 226.326C293.51 226.586 292.826 226.615 292.434 226.389Z" fill="#06033E"/>
<path d="M299.965 230.736L295.089 227.921C294.697 227.695 294.747 227.3 295.199 227.039L300.03 224.25C300.482 223.989 301.166 223.961 301.557 224.187L306.433 227.002C306.825 227.228 306.775 227.623 306.323 227.884L301.492 230.673C301.04 230.934 300.356 230.962 299.965 230.736Z" fill="#06033E"/>
<path d="M307.495 235.084L302.619 232.269C302.227 232.043 302.277 231.648 302.729 231.387L307.56 228.598C308.012 228.337 308.696 228.309 309.087 228.535L313.963 231.35C314.355 231.576 314.305 231.971 313.853 232.232L309.021 235.022C308.57 235.282 307.887 235.31 307.495 235.084Z" fill="#06033E"/>
<path d="M315.025 239.432L310.149 236.617C309.757 236.391 309.807 235.996 310.259 235.735L315.091 232.946C315.543 232.685 316.227 232.657 316.618 232.883L321.494 235.698C321.886 235.924 321.836 236.319 321.384 236.58L316.553 239.369C316.101 239.629 315.417 239.658 315.025 239.432Z" fill="#06033E"/>
<path d="M322.556 243.779L317.68 240.964C317.289 240.738 317.338 240.343 317.79 240.082L322.622 237.293C323.074 237.032 323.758 237.004 324.149 237.23L329.025 240.045C329.416 240.271 329.367 240.666 328.915 240.927L324.084 243.717C323.631 243.977 322.947 244.005 322.556 243.779Z" fill="#06033E"/>
<path d="M330.086 248.127L325.21 245.312C324.818 245.086 324.868 244.691 325.32 244.43L330.152 241.641C330.604 241.38 331.288 241.352 331.679 241.578L336.555 244.393C336.946 244.619 336.897 245.014 336.445 245.275L331.613 248.065C331.161 248.324 330.477 248.353 330.086 248.127Z" fill="#06033E"/>
<path d="M337.616 252.474L332.74 249.659C332.348 249.433 332.398 249.038 332.85 248.777L337.682 245.988C338.134 245.727 338.818 245.699 339.209 245.925L344.085 248.74C344.477 248.966 344.427 249.361 343.975 249.622L339.143 252.411C338.691 252.672 338.008 252.7 337.616 252.474Z" fill="#06033E"/>
<path d="M345.146 256.822L340.27 254.007C339.878 253.781 339.928 253.386 340.38 253.125L345.211 250.336C345.663 250.075 346.347 250.047 346.738 250.273L351.614 253.088C352.006 253.314 351.956 253.709 351.504 253.97L346.673 256.76C346.222 257.02 345.538 257.048 345.146 256.822Z" fill="#06033E"/>
<path d="M352.677 261.169L347.801 258.354C347.41 258.128 347.459 257.733 347.911 257.472L352.743 254.683C353.195 254.422 353.879 254.394 354.27 254.62L359.146 257.435C359.538 257.661 359.488 258.056 359.036 258.317L354.205 261.106C353.752 261.367 353.068 261.396 352.677 261.169Z" fill="#06033E"/>
<path d="M249.383 226.925L235.022 218.634C234.631 218.408 234.68 218.013 235.132 217.752L239.963 214.963C240.415 214.702 241.099 214.674 241.491 214.9L255.852 223.191C256.243 223.417 256.194 223.812 255.742 224.073L250.91 226.862C250.458 227.123 249.774 227.152 249.383 226.925Z" fill="#06033E"/>
<path d="M341.894 280.337L327.533 272.046C327.142 271.82 327.191 271.425 327.643 271.164L332.475 268.375C332.927 268.114 333.611 268.086 334.002 268.312L348.363 276.603C348.755 276.829 348.705 277.224 348.253 277.485L343.421 280.274C342.969 280.534 342.285 280.563 341.894 280.337Z" fill="#06033E"/>
<path d="M311.779 272.553L306.903 269.738C306.511 269.512 306.561 269.117 307.013 268.856L312.769 265.533C313.221 265.272 313.905 265.244 314.296 265.47L319.172 268.285C319.563 268.511 319.514 268.906 319.062 269.167L313.306 272.49C312.855 272.751 312.171 272.78 311.779 272.553Z" fill="#06033E"/>
<path d="M257.094 240.981L249.296 236.479C248.905 236.253 248.954 235.858 249.406 235.597L255.162 232.274C255.614 232.013 256.298 231.985 256.689 232.211L264.487 236.713C264.879 236.939 264.829 237.334 264.377 237.595L258.621 240.918C258.17 241.179 257.486 241.207 257.094 240.981Z" fill="#06033E"/>
<path d="M304.524 268.365L296.726 263.863C296.334 263.637 296.384 263.242 296.836 262.981L302.592 259.658C303.044 259.397 303.728 259.369 304.119 259.595L311.917 264.097C312.308 264.323 312.259 264.718 311.807 264.979L306.052 268.302C305.599 268.562 304.915 268.591 304.524 268.365Z" fill="#06033E"/>
<path d="M267.959 247.254L260.161 242.752C259.77 242.526 259.819 242.131 260.271 241.87L266.027 238.547C266.479 238.286 267.163 238.258 267.554 238.484L275.352 242.986C275.744 243.212 275.694 243.607 275.242 243.868L269.486 247.191C269.034 247.451 268.35 247.48 267.959 247.254Z" fill="#06033E"/>
<path d="M267.606 238.514L301.511 258.089C301.932 258.332 301.932 258.726 301.511 258.969L295.642 262.357C295.221 262.6 294.539 262.6 294.118 262.357L260.213 242.782L267.606 238.514Z" fill="#06033E"/>
<path d="M332.825 280.436L338.257 283.572C338.578 283.757 338.538 284.081 338.167 284.295L335.812 285.654C335.442 285.868 334.881 285.891 334.56 285.706L329.129 282.57C328.808 282.385 328.848 282.061 329.219 281.847L331.573 280.488C331.944 280.274 332.504 280.251 332.825 280.436Z" fill="#06033E"/>
<path d="M325.232 276.052L330.664 279.188C330.985 279.373 330.945 279.697 330.574 279.911L328.22 281.27C327.849 281.484 327.289 281.507 326.968 281.322L321.537 278.186C321.216 278.001 321.256 277.677 321.627 277.463L323.981 276.104C324.351 275.891 324.911 275.867 325.232 276.052Z" fill="#06033E"/>
<path d="M317.702 271.705L323.134 274.841C323.455 275.026 323.415 275.35 323.044 275.564L320.69 276.923C320.319 277.137 319.759 277.16 319.438 276.975L314.006 273.839C313.685 273.654 313.725 273.33 314.096 273.116L316.45 271.757C316.821 271.543 317.381 271.52 317.702 271.705Z" fill="#06033E"/>
<path d="M329.391 273.652L334.822 276.788C335.143 276.973 335.103 277.297 334.732 277.511L332.377 278.87C332.007 279.084 331.446 279.107 331.125 278.922L325.693 275.786C325.372 275.601 325.412 275.277 325.783 275.063L328.138 273.704C328.509 273.49 329.07 273.466 329.391 273.652Z" fill="#06033E"/>
</g>
<g opacity="0.4">
<path d="M231.581 226.251L226.705 223.436C226.313 223.21 226.363 222.815 226.815 222.554L232.57 219.231C233.022 218.97 233.706 218.942 234.098 219.168L238.974 221.983C239.366 222.209 239.316 222.604 238.864 222.865L233.108 226.188C232.657 226.449 231.973 226.477 231.581 226.251Z" fill="#06033E"/>
<path d="M239.111 230.599L234.235 227.784C233.843 227.558 233.893 227.163 234.345 226.902L240.101 223.579C240.553 223.318 241.237 223.29 241.628 223.516L246.504 226.331C246.896 226.557 246.846 226.952 246.394 227.213L240.639 230.536C240.187 230.796 239.503 230.825 239.111 230.599Z" fill="#06033E"/>
<path d="M246.642 234.946L241.766 232.131C241.375 231.905 241.424 231.51 241.876 231.249L247.632 227.926C248.084 227.665 248.768 227.637 249.159 227.863L254.035 230.678C254.426 230.904 254.377 231.299 253.925 231.56L248.169 234.883C247.717 235.144 247.033 235.172 246.642 234.946Z" fill="#06033E"/>
<path d="M257.057 231.356L252.181 228.541C251.789 228.315 251.839 227.92 252.291 227.659L257.122 224.87C257.574 224.609 258.258 224.581 258.649 224.807L263.525 227.622C263.916 227.848 263.867 228.243 263.415 228.504L258.584 231.293C258.132 231.554 257.448 231.582 257.057 231.356Z" fill="#06033E"/>
<path d="M264.587 235.704L259.711 232.889C259.319 232.663 259.369 232.268 259.821 232.007L264.653 229.218C265.105 228.957 265.789 228.929 266.18 229.155L271.056 231.97C271.448 232.196 271.398 232.591 270.946 232.852L266.114 235.641C265.662 235.901 264.978 235.93 264.587 235.704Z" fill="#06033E"/>
<path d="M272.117 240.051L267.241 237.236C266.849 237.01 266.899 236.615 267.351 236.354L272.183 233.565C272.635 233.304 273.319 233.276 273.71 233.502L278.586 236.317C278.978 236.543 278.928 236.938 278.476 237.199L273.644 239.988C273.193 240.249 272.509 240.277 272.117 240.051Z" fill="#06033E"/>
<path d="M279.647 244.399L274.771 241.584C274.379 241.358 274.429 240.963 274.881 240.702L279.712 237.913C280.164 237.652 280.848 237.624 281.239 237.85L286.115 240.665C286.507 240.891 286.457 241.286 286.005 241.547L281.174 244.336C280.723 244.596 280.039 244.625 279.647 244.399Z" fill="#06033E"/>
<path d="M287.178 248.746L282.302 245.931C281.91 245.705 281.96 245.31 282.412 245.049L287.244 242.26C287.696 241.999 288.38 241.971 288.771 242.197L293.647 245.012C294.038 245.238 293.989 245.633 293.537 245.894L288.706 248.683C288.253 248.944 287.569 248.972 287.178 248.746Z" fill="#06033E"/>
<path d="M294.708 253.094L289.832 250.279C289.44 250.053 289.49 249.658 289.942 249.397L294.773 246.608C295.225 246.347 295.909 246.319 296.3 246.545L301.176 249.36C301.567 249.586 301.518 249.981 301.066 250.242L296.235 253.031C295.783 253.292 295.099 253.32 294.708 253.094Z" fill="#06033E"/>
<path d="M302.238 257.442L297.362 254.627C296.97 254.401 297.02 254.006 297.472 253.745L302.303 250.956C302.755 250.695 303.439 250.667 303.83 250.893L308.706 253.708C309.097 253.934 309.048 254.329 308.596 254.59L303.764 257.379C303.314 257.639 302.63 257.668 302.238 257.442Z" fill="#06033E"/>
<path d="M309.768 261.789L304.892 258.974C304.501 258.748 304.55 258.353 305.002 258.092L309.834 255.303C310.286 255.042 310.97 255.014 311.361 255.24L316.237 258.055C316.629 258.281 316.579 258.676 316.127 258.937L311.295 261.726C310.844 261.987 310.16 262.015 309.768 261.789Z" fill="#06033E"/>
<path d="M317.299 266.137L312.423 263.322C312.032 263.096 312.081 262.701 312.533 262.44L317.365 259.651C317.817 259.39 318.501 259.362 318.892 259.588L323.768 262.403C324.16 262.629 324.11 263.024 323.658 263.285L318.827 266.074C318.374 266.335 317.69 266.363 317.299 266.137Z" fill="#06033E"/>
<path d="M324.829 270.484L319.953 267.669C319.561 267.443 319.611 267.048 320.063 266.787L324.894 263.998C325.346 263.737 326.03 263.709 326.421 263.935L331.297 266.75C331.688 266.976 331.639 267.371 331.187 267.632L326.355 270.422C325.904 270.682 325.22 270.71 324.829 270.484Z" fill="#06033E"/>
<path d="M268.152 229.298L263.276 226.483C262.884 226.257 262.934 225.862 263.386 225.601L268.217 222.812C268.669 222.551 269.353 222.523 269.745 222.749L274.621 225.564C275.012 225.79 274.963 226.185 274.511 226.446L269.68 229.235C269.227 229.495 268.543 229.524 268.152 229.298Z" fill="#06033E"/>
<path d="M260.509 224.885L255.633 222.07C255.242 221.844 255.291 221.449 255.743 221.188L260.574 218.398C261.026 218.137 261.71 218.109 262.102 218.335L266.978 221.15C267.37 221.376 267.32 221.771 266.868 222.032L262.037 224.821C261.585 225.083 260.901 225.111 260.509 224.885Z" fill="#06033E"/>
<path d="M252.854 220.465L242.352 214.402C241.961 214.176 242.01 213.781 242.462 213.52L247.293 210.731C247.745 210.47 248.429 210.442 248.82 210.668L259.322 216.731C259.714 216.957 259.664 217.352 259.212 217.613L254.381 220.402C253.93 220.663 253.246 220.691 252.854 220.465Z" fill="#06033E"/>
<path d="M258.205 215.09L249.682 210.169C249.29 209.943 249.34 209.548 249.792 209.287L254.623 206.497C255.075 206.236 255.759 206.208 256.15 206.434L264.673 211.355C265.064 211.581 265.015 211.976 264.563 212.237L259.732 215.026C259.28 215.288 258.596 215.317 258.205 215.09Z" fill="#06033E"/>
<path d="M275.682 233.645L270.806 230.83C270.414 230.604 270.464 230.209 270.916 229.948L275.747 227.158C276.199 226.897 276.883 226.869 277.274 227.095L282.15 229.91C282.541 230.136 282.492 230.531 282.04 230.792L277.209 233.581C276.758 233.843 276.074 233.871 275.682 233.645Z" fill="#06033E"/>
<path d="M283.212 237.993L278.336 235.178C277.945 234.952 277.994 234.557 278.446 234.296L283.277 231.506C283.729 231.245 284.413 231.217 284.804 231.443L289.68 234.258C290.072 234.484 290.022 234.879 289.57 235.14L284.738 237.929C284.288 238.191 283.604 238.219 283.212 237.993Z" fill="#06033E"/>
<path d="M290.743 242.34L285.867 239.525C285.475 239.299 285.525 238.904 285.977 238.643L290.809 235.854C291.261 235.593 291.945 235.565 292.336 235.791L297.212 238.606C297.604 238.832 297.554 239.227 297.102 239.488L292.27 242.277C291.818 242.538 291.134 242.566 290.743 242.34Z" fill="#06033E"/>
<path d="M298.273 246.688L293.397 243.873C293.005 243.647 293.055 243.252 293.507 242.991L298.339 240.202C298.791 239.941 299.475 239.913 299.866 240.139L304.742 242.954C305.133 243.18 305.084 243.575 304.632 243.836L299.801 246.625C299.348 246.886 298.664 246.914 298.273 246.688Z" fill="#06033E"/>
<path d="M305.803 251.036L300.927 248.221C300.536 247.995 300.585 247.6 301.037 247.339L305.868 244.55C306.32 244.289 307.004 244.261 307.395 244.487L312.271 247.302C312.662 247.528 312.613 247.923 312.161 248.184L307.329 250.973C306.879 251.233 306.195 251.262 305.803 251.036Z" fill="#06033E"/>
<path d="M313.333 255.383L308.457 252.568C308.065 252.342 308.115 251.947 308.567 251.686L313.399 248.897C313.851 248.636 314.535 248.608 314.926 248.834L319.802 251.649C320.194 251.875 320.144 252.27 319.692 252.531L314.86 255.32C314.409 255.581 313.725 255.609 313.333 255.383Z" fill="#06033E"/>
<path d="M320.864 259.731L315.988 256.916C315.596 256.69 315.646 256.295 316.098 256.034L320.93 253.245C321.382 252.984 322.066 252.956 322.457 253.182L327.333 255.997C327.725 256.223 327.675 256.618 327.223 256.879L322.392 259.668C321.939 259.928 321.255 259.957 320.864 259.731Z" fill="#06033E"/>
<path d="M328.394 264.078L323.518 261.263C323.126 261.037 323.176 260.642 323.628 260.381L328.46 257.592C328.912 257.331 329.596 257.303 329.987 257.529L334.863 260.344C335.255 260.57 335.205 260.965 334.753 261.226L329.922 264.015C329.47 264.276 328.786 264.305 328.394 264.078Z" fill="#06033E"/>
<path d="M335.924 268.426L331.048 265.611C330.657 265.385 330.706 264.99 331.158 264.729L335.989 261.94C336.441 261.679 337.125 261.651 337.517 261.877L342.393 264.692C342.784 264.918 342.735 265.313 342.283 265.574L337.452 268.363C337 268.624 336.316 268.652 335.924 268.426Z" fill="#06033E"/>
<path d="M349.311 276.155L338.672 270.012C338.281 269.786 338.33 269.391 338.782 269.13L343.614 266.34C344.066 266.079 344.75 266.051 345.141 266.277L355.78 272.42C356.172 272.646 356.122 273.041 355.67 273.302L350.839 276.091C350.387 276.353 349.703 276.381 349.311 276.155Z" fill="#06033E"/>
<path d="M363.972 267.691L354.992 262.506C354.6 262.28 354.65 261.885 355.102 261.624L359.934 258.835C360.386 258.574 361.07 258.546 361.461 258.772L370.441 263.957C370.832 264.183 370.783 264.578 370.331 264.839L365.499 267.628C365.047 267.889 364.363 267.917 363.972 267.691Z" fill="#06033E"/>
<path d="M288.869 232.795L283.993 229.98C283.601 229.754 283.651 229.359 284.103 229.098L288.934 226.309C289.386 226.048 290.07 226.02 290.462 226.246L295.338 229.061C295.73 229.287 295.68 229.682 295.228 229.943L290.397 232.732C289.945 232.992 289.261 233.021 288.869 232.795Z" fill="#06033E"/>
<path d="M281.152 228.339L276.276 225.524C275.884 225.298 275.934 224.903 276.386 224.642L281.218 221.853C281.67 221.592 282.354 221.564 282.745 221.79L287.621 224.605C288.013 224.831 287.963 225.226 287.511 225.487L282.679 228.276C282.227 228.536 281.543 228.565 281.152 228.339Z" fill="#06033E"/>
<path d="M273.434 223.883L268.558 221.068C268.166 220.842 268.216 220.447 268.668 220.186L273.5 217.397C273.952 217.136 274.636 217.108 275.027 217.334L279.903 220.149C280.295 220.375 280.245 220.77 279.793 221.031L274.962 223.82C274.509 224.081 273.826 224.109 273.434 223.883Z" fill="#06033E"/>
<path d="M265.717 219.427L260.841 216.612C260.45 216.386 260.499 215.991 260.951 215.73L265.782 212.941C266.234 212.68 266.918 212.652 267.309 212.878L272.185 215.693C272.576 215.919 272.527 216.314 272.075 216.575L267.243 219.364C266.792 219.625 266.108 219.653 265.717 219.427Z" fill="#06033E"/>
<path d="M296.4 237.142L291.524 234.327C291.132 234.101 291.182 233.706 291.634 233.445L296.466 230.655C296.918 230.394 297.602 230.366 297.993 230.592L302.869 233.407C303.261 233.633 303.211 234.028 302.759 234.289L297.927 237.079C297.475 237.34 296.791 237.368 296.4 237.142Z" fill="#06033E"/>
<path d="M303.93 241.49L299.054 238.675C298.662 238.449 298.712 238.054 299.164 237.793L303.995 235.004C304.447 234.743 305.131 234.715 305.522 234.941L310.398 237.756C310.79 237.982 310.74 238.377 310.288 238.638L305.456 241.428C305.005 241.688 304.321 241.716 303.93 241.49Z" fill="#06033E"/>
<path d="M311.46 245.837L306.584 243.022C306.192 242.796 306.242 242.401 306.694 242.14L311.525 239.35C311.977 239.089 312.661 239.061 313.053 239.287L317.929 242.102C318.32 242.328 318.271 242.723 317.819 242.984L312.988 245.773C312.535 246.035 311.852 246.063 311.46 245.837Z" fill="#06033E"/>
<path d="M318.99 250.185L314.114 247.37C313.722 247.144 313.772 246.749 314.224 246.488L319.055 243.698C319.507 243.437 320.191 243.409 320.582 243.635L325.458 246.45C325.85 246.676 325.8 247.071 325.348 247.332L320.517 250.122C320.066 250.383 319.382 250.411 318.99 250.185Z" fill="#06033E"/>
<path d="M326.521 254.533L321.645 251.718C321.253 251.492 321.303 251.097 321.755 250.836L326.586 248.047C327.038 247.786 327.722 247.758 328.113 247.984L332.989 250.799C333.381 251.025 333.331 251.42 332.879 251.681L328.047 254.471C327.596 254.73 326.912 254.759 326.521 254.533Z" fill="#06033E"/>
<path d="M334.051 258.88L329.175 256.065C328.783 255.839 328.833 255.444 329.285 255.183L334.117 252.393C334.569 252.132 335.253 252.104 335.644 252.33L340.52 255.145C340.912 255.371 340.862 255.766 340.41 256.027L335.578 258.816C335.126 259.078 334.442 259.106 334.051 258.88Z" fill="#06033E"/>
<path d="M341.581 263.228L336.705 260.413C336.314 260.187 336.363 259.792 336.815 259.531L341.647 256.742C342.099 256.481 342.783 256.453 343.174 256.679L348.05 259.494C348.441 259.72 348.392 260.115 347.94 260.376L343.109 263.165C342.657 263.426 341.973 263.454 341.581 263.228Z" fill="#06033E"/>
<path d="M349.112 267.575L344.236 264.76C343.845 264.534 343.894 264.139 344.346 263.878L349.178 261.089C349.63 260.828 350.314 260.8 350.705 261.026L355.581 263.841C355.972 264.067 355.923 264.462 355.471 264.723L350.639 267.512C350.187 267.773 349.503 267.801 349.112 267.575Z" fill="#06033E"/>
<path d="M356.642 271.923L351.766 269.108C351.374 268.882 351.424 268.487 351.876 268.226L356.707 265.437C357.159 265.176 357.843 265.148 358.234 265.374L363.11 268.189C363.502 268.415 363.453 268.81 363 269.071L358.168 271.861C357.717 272.121 357.033 272.149 356.642 271.923Z" fill="#06033E"/>
<path d="M284.904 222.041L280.028 219.226C279.636 219 279.686 218.605 280.138 218.344L284.969 215.555C285.421 215.294 286.105 215.266 286.497 215.492L291.373 218.307C291.765 218.533 291.715 218.928 291.263 219.189L286.432 221.978C285.979 222.239 285.296 222.267 284.904 222.041Z" fill="#06033E"/>
<path d="M277.411 217.715L272.535 214.9C272.144 214.674 272.193 214.279 272.645 214.018L277.476 211.228C277.928 210.967 278.612 210.939 279.004 211.165L283.88 213.98C284.272 214.206 284.222 214.601 283.77 214.862L278.939 217.651C278.487 217.913 277.803 217.941 277.411 217.715Z" fill="#06033E"/>
<path d="M269.919 213.389L265.043 210.574C264.652 210.348 264.701 209.953 265.153 209.692L269.984 206.902C270.436 206.641 271.12 206.613 271.511 206.839L276.387 209.654C276.778 209.88 276.729 210.275 276.277 210.536L271.446 213.326C270.994 213.587 270.31 213.615 269.919 213.389Z" fill="#06033E"/>
<path d="M262.426 209.063L257.55 206.248C257.159 206.022 257.208 205.627 257.66 205.366L262.491 202.577C262.943 202.316 263.627 202.288 264.018 202.514L268.894 205.329C269.286 205.555 269.237 205.95 268.784 206.211L263.953 209C263.501 209.261 262.817 209.289 262.426 209.063Z" fill="#06033E"/>
<path d="M270.131 204.615L265.255 201.8C264.863 201.574 264.913 201.179 265.365 200.918L266.962 199.996C267.414 199.735 268.098 199.707 268.489 199.933L273.365 202.748C273.757 202.974 273.707 203.369 273.255 203.63L271.658 204.552C271.206 204.812 270.522 204.841 270.131 204.615Z" fill="#06033E"/>
<path d="M279.909 210.26L275.033 207.445C274.642 207.219 274.691 206.824 275.143 206.563L276.74 205.641C277.192 205.38 277.876 205.352 278.267 205.578L283.143 208.393C283.535 208.619 283.485 209.014 283.033 209.275L281.436 210.197C280.984 210.458 280.3 210.486 279.909 210.26Z" fill="#06033E"/>
<path d="M287.37 214.568L282.494 211.753C282.102 211.527 282.152 211.132 282.604 210.871L284.201 209.949C284.653 209.688 285.337 209.66 285.729 209.886L290.605 212.701C290.996 212.927 290.947 213.322 290.495 213.583L288.898 214.505C288.446 214.766 287.762 214.794 287.37 214.568Z" fill="#06033E"/>
<path d="M294.832 218.876L289.956 216.061C289.565 215.835 289.614 215.44 290.066 215.179L291.663 214.257C292.115 213.996 292.799 213.968 293.19 214.194L298.066 217.009C298.458 217.235 298.408 217.63 297.956 217.891L296.359 218.813C295.907 219.074 295.223 219.102 294.832 218.876Z" fill="#06033E"/>
<path d="M302.293 223.184L297.417 220.369C297.026 220.143 297.075 219.748 297.527 219.487L299.124 218.565C299.576 218.304 300.26 218.276 300.651 218.502L305.527 221.317C305.919 221.543 305.869 221.938 305.417 222.199L303.82 223.121C303.369 223.382 302.685 223.41 302.293 223.184Z" fill="#06033E"/>
<path d="M343.95 247.235L339.074 244.42C338.683 244.194 338.732 243.799 339.184 243.538L340.781 242.616C341.233 242.355 341.917 242.327 342.308 242.553L347.184 245.368C347.576 245.594 347.526 245.989 347.074 246.25L345.477 247.172C345.026 247.432 344.342 247.461 343.95 247.235Z" fill="#06033E"/>
<path d="M351.412 251.542L346.536 248.727C346.144 248.501 346.194 248.106 346.646 247.845L348.243 246.923C348.695 246.662 349.379 246.634 349.771 246.86L354.647 249.675C355.039 249.901 354.989 250.296 354.537 250.557L352.94 251.479C352.487 251.74 351.803 251.769 351.412 251.542Z" fill="#06033E"/>
<path d="M358.874 255.85L353.998 253.035C353.606 252.809 353.656 252.414 354.108 252.153L355.705 251.231C356.157 250.97 356.841 250.942 357.232 251.168L362.108 253.983C362.499 254.209 362.45 254.604 361.998 254.865L360.401 255.787C359.949 256.048 359.265 256.077 358.874 255.85Z" fill="#06033E"/>
<path d="M366.335 260.158L361.459 257.343C361.067 257.117 361.117 256.722 361.569 256.461L363.166 255.539C363.618 255.278 364.302 255.25 364.693 255.476L369.569 258.291C369.961 258.517 369.911 258.912 369.459 259.173L367.862 260.095C367.41 260.356 366.727 260.384 366.335 260.158Z" fill="#06033E"/>
<path d="M292.434 226.389L287.558 223.574C287.167 223.348 287.216 222.953 287.668 222.692L292.499 219.903C292.951 219.642 293.635 219.614 294.026 219.84L298.902 222.655C299.293 222.881 299.244 223.276 298.792 223.537L293.961 226.326C293.51 226.586 292.826 226.615 292.434 226.389Z" fill="#06033E"/>
<path d="M299.965 230.736L295.089 227.921C294.697 227.695 294.747 227.3 295.199 227.039L300.03 224.25C300.482 223.989 301.166 223.961 301.557 224.187L306.433 227.002C306.825 227.228 306.775 227.623 306.323 227.884L301.492 230.673C301.04 230.934 300.356 230.962 299.965 230.736Z" fill="#06033E"/>
<path d="M307.495 235.084L302.619 232.269C302.227 232.043 302.277 231.648 302.729 231.387L307.56 228.598C308.012 228.337 308.696 228.309 309.087 228.535L313.963 231.35C314.355 231.576 314.305 231.971 313.853 232.232L309.021 235.022C308.57 235.282 307.887 235.31 307.495 235.084Z" fill="#06033E"/>
<path d="M315.025 239.432L310.149 236.617C309.757 236.391 309.807 235.996 310.259 235.735L315.091 232.946C315.543 232.685 316.227 232.657 316.618 232.883L321.494 235.698C321.886 235.924 321.836 236.319 321.384 236.58L316.553 239.369C316.101 239.629 315.417 239.658 315.025 239.432Z" fill="#06033E"/>
<path d="M322.556 243.779L317.68 240.964C317.289 240.738 317.338 240.343 317.79 240.082L322.622 237.293C323.074 237.032 323.758 237.004 324.149 237.23L329.025 240.045C329.416 240.271 329.367 240.666 328.915 240.927L324.084 243.717C323.631 243.977 322.947 244.005 322.556 243.779Z" fill="#06033E"/>
<path d="M330.086 248.127L325.21 245.312C324.818 245.086 324.868 244.691 325.32 244.43L330.152 241.641C330.604 241.38 331.288 241.352 331.679 241.578L336.555 244.393C336.946 244.619 336.897 245.014 336.445 245.275L331.613 248.065C331.161 248.324 330.477 248.353 330.086 248.127Z" fill="#06033E"/>
<path d="M337.616 252.474L332.74 249.659C332.348 249.433 332.398 249.038 332.85 248.777L337.682 245.988C338.134 245.727 338.818 245.699 339.209 245.925L344.085 248.74C344.477 248.966 344.427 249.361 343.975 249.622L339.143 252.411C338.691 252.672 338.008 252.7 337.616 252.474Z" fill="#06033E"/>
<path d="M345.146 256.822L340.27 254.007C339.878 253.781 339.928 253.386 340.38 253.125L345.211 250.336C345.663 250.075 346.347 250.047 346.738 250.273L351.614 253.088C352.006 253.314 351.956 253.709 351.504 253.97L346.673 256.76C346.222 257.02 345.538 257.048 345.146 256.822Z" fill="#06033E"/>
<path d="M352.677 261.169L347.801 258.354C347.41 258.128 347.459 257.733 347.911 257.472L352.743 254.683C353.195 254.422 353.879 254.394 354.27 254.62L359.146 257.435C359.538 257.661 359.488 258.056 359.036 258.317L354.205 261.106C353.752 261.367 353.068 261.396 352.677 261.169Z" fill="#06033E"/>
<path d="M249.383 226.925L235.022 218.634C234.631 218.408 234.68 218.013 235.132 217.752L239.963 214.963C240.415 214.702 241.099 214.674 241.491 214.9L255.852 223.191C256.243 223.417 256.194 223.812 255.742 224.073L250.91 226.862C250.458 227.123 249.774 227.152 249.383 226.925Z" fill="#06033E"/>
<path d="M341.894 280.337L327.533 272.046C327.142 271.82 327.191 271.425 327.643 271.164L332.475 268.375C332.927 268.114 333.611 268.086 334.002 268.312L348.363 276.603C348.755 276.829 348.705 277.224 348.253 277.485L343.421 280.274C342.969 280.534 342.285 280.563 341.894 280.337Z" fill="#06033E"/>
<path d="M311.779 272.553L306.903 269.738C306.511 269.512 306.561 269.117 307.013 268.856L312.769 265.533C313.221 265.272 313.905 265.244 314.296 265.47L319.172 268.285C319.563 268.511 319.514 268.906 319.062 269.167L313.306 272.49C312.855 272.751 312.171 272.78 311.779 272.553Z" fill="#06033E"/>
<path d="M257.094 240.981L249.296 236.479C248.905 236.253 248.954 235.858 249.406 235.597L255.162 232.274C255.614 232.013 256.298 231.985 256.689 232.211L264.487 236.713C264.879 236.939 264.829 237.334 264.377 237.595L258.621 240.918C258.17 241.179 257.486 241.207 257.094 240.981Z" fill="#06033E"/>
<path d="M304.524 268.365L296.726 263.863C296.334 263.637 296.384 263.242 296.836 262.981L302.592 259.658C303.044 259.397 303.728 259.369 304.119 259.595L311.917 264.097C312.308 264.323 312.259 264.718 311.807 264.979L306.052 268.302C305.599 268.562 304.915 268.591 304.524 268.365Z" fill="#06033E"/>
<path d="M267.959 247.254L260.161 242.752C259.77 242.526 259.819 242.131 260.271 241.87L266.027 238.547C266.479 238.286 267.163 238.258 267.554 238.484L275.352 242.986C275.744 243.212 275.694 243.607 275.242 243.868L269.486 247.191C269.034 247.451 268.35 247.48 267.959 247.254Z" fill="#06033E"/>
<path d="M267.606 238.514L301.511 258.089C301.932 258.332 301.932 258.726 301.511 258.969L295.642 262.357C295.221 262.6 294.539 262.6 294.118 262.357L260.213 242.782L267.606 238.514Z" fill="#06033E"/>
<path d="M332.825 280.436L338.257 283.572C338.578 283.757 338.538 284.081 338.167 284.295L335.812 285.654C335.442 285.868 334.881 285.891 334.56 285.706L329.129 282.57C328.808 282.385 328.848 282.061 329.219 281.847L331.573 280.488C331.944 280.274 332.504 280.251 332.825 280.436Z" fill="#06033E"/>
<path d="M325.232 276.052L330.664 279.188C330.985 279.373 330.945 279.697 330.574 279.911L328.22 281.27C327.849 281.484 327.289 281.507 326.968 281.322L321.537 278.186C321.216 278.001 321.256 277.677 321.627 277.463L323.981 276.104C324.351 275.891 324.911 275.867 325.232 276.052Z" fill="#06033E"/>
<path d="M317.702 271.705L323.134 274.841C323.455 275.026 323.415 275.35 323.044 275.564L320.69 276.923C320.319 277.137 319.759 277.16 319.438 276.975L314.006 273.839C313.685 273.654 313.725 273.33 314.096 273.116L316.45 271.757C316.821 271.543 317.381 271.52 317.702 271.705Z" fill="#06033E"/>
<path d="M329.391 273.652L334.822 276.788C335.143 276.973 335.103 277.297 334.732 277.511L332.377 278.87C332.007 279.084 331.446 279.107 331.125 278.922L325.693 275.786C325.372 275.601 325.412 275.277 325.783 275.063L328.138 273.704C328.509 273.49 329.07 273.466 329.391 273.652Z" fill="#06033E"/>
</g>
<path d="M409.086 264.856L265.224 181.797C262.962 180.491 261.781 177.308 262.587 174.689L295.121 69.058C295.927 66.439 298.414 65.374 300.676 66.68L444.538 149.739C446.8 151.045 447.981 154.227 447.175 156.847L414.641 262.478C413.836 265.098 411.349 266.162 409.086 264.856Z" fill="url(#paint8_radial_1_2)"/>
<path d="M407.73 261.157L268.192 180.528C266.027 179.278 264.897 176.233 265.668 173.726L296.772 72.743C297.543 70.236 299.923 69.217 302.088 70.467L441.626 151.096C443.791 152.346 444.921 155.391 444.15 157.898L413.046 258.881C412.275 261.388 409.895 262.407 407.73 261.157Z" fill="url(#paint9_linear_1_2)"/>
<path opacity="0.4" d="M407.73 261.157L268.192 180.528C266.027 179.278 264.897 176.233 265.668 173.726L296.772 72.743C297.543 70.236 299.923 69.217 302.088 70.467L441.626 151.096C443.791 152.346 444.921 155.391 444.15 157.898L413.046 258.881C412.275 261.388 409.895 262.407 407.73 261.157Z" fill="#06033E"/>
<path opacity="0.4" d="M407.73 261.157L268.192 180.528C266.027 179.278 264.897 176.233 265.668 173.726L296.772 72.743C297.543 70.236 299.923 69.217 302.088 70.467L441.626 151.096C443.791 152.346 444.921 155.391 444.15 157.898L413.046 258.881C412.275 261.388 409.895 262.407 407.73 261.157Z" fill="#06033E"/>
<path opacity="0.5" d="M400.233 230.297L305.773 175.761C304.288 174.903 303.512 172.814 304.041 171.094L325.403 101.736C325.932 100.016 327.565 99.317 329.051 100.174L423.511 154.71C424.996 155.568 425.772 157.657 425.243 159.377L403.881 228.735C403.352 230.455 401.719 231.154 400.233 230.297Z" fill="#06033E"/>
<path d="M387.47 231.971L293.01 177.435C291.525 176.577 290.749 174.488 291.278 172.768L312.64 103.41C313.169 101.69 314.802 100.991 316.287 101.848L410.747 156.385C412.232 157.243 413.007 159.332 412.478 161.052L391.116 230.41C390.589 232.13 388.956 232.829 387.47 231.971Z" fill="url(#paint10_radial_1_2)"/>
<g opacity="0.5">
<path d="M387.47 231.971L293.01 177.435C291.525 176.577 290.749 174.488 291.278 172.768L312.64 103.41C313.169 101.69 314.802 100.991 316.287 101.848L410.747 156.385C412.232 157.243 413.007 159.332 412.478 161.052L391.116 230.41C390.589 232.13 388.956 232.829 387.47 231.971Z" fill="#06033E"/>
</g>
<path d="M410.748 156.385L316.288 101.848C315.357 101.311 314.369 101.385 313.63 101.938C314.075 101.925 314.54 102.026 314.994 102.287L409.454 156.823C410.939 157.68 411.714 159.77 411.185 161.49L389.823 230.848C389.625 231.49 389.273 231.989 388.833 232.319C389.846 232.289 390.749 231.603 391.117 230.408L412.479 161.05C413.009 159.332 412.233 157.242 410.748 156.385Z" fill="white"/>
<path opacity="0.4" d="M268.334 288.609C267.032 288.609 265.786 288.338 264.834 287.789V287.79L226.988 265.94C225.985 265.36 225.433 264.533 225.433 263.608C225.432 262.536 226.194 261.481 227.52 260.715L247 249.467C249.381 248.094 252.874 247.959 254.957 249.16L292.802 271.01C293.805 271.589 294.357 272.417 294.358 273.342C294.358 274.414 293.597 275.469 292.271 276.234L272.789 287.482C271.499 288.228 269.878 288.609 268.334 288.609ZM251.476 249.447C250.108 249.447 248.655 249.776 247.548 250.415L228.068 261.662C227.088 262.227 226.526 262.937 226.526 263.608C226.526 264.271 227.075 264.727 227.536 264.993L265.382 286.843C267.099 287.832 270.24 287.694 272.244 286.535L291.725 275.288C292.704 274.723 293.266 274.013 293.266 273.342C293.266 272.679 292.717 272.223 292.256 271.957L254.411 250.107C253.643 249.663 252.587 249.447 251.476 249.447Z" fill="#06033E"/>
<path d="M339.296 138.236L333.456 134.864C332.914 134.551 332.624 133.799 332.807 133.185C332.99 132.57 333.578 132.326 334.12 132.639L339.96 136.011C340.502 136.324 340.792 137.076 340.609 137.69C340.425 138.304 339.837 138.548 339.296 138.236Z" fill="white"/>
<path d="M353.206 146.267L344.595 141.295C344.053 140.982 343.763 140.23 343.946 139.616C344.129 139.001 344.717 138.757 345.259 139.07L353.87 144.041C354.412 144.354 354.702 145.106 354.519 145.72C354.336 146.335 353.748 146.58 353.206 146.267Z" fill="white"/>
<path d="M327.518 164.235L321.678 160.863C321.136 160.55 320.846 159.798 321.029 159.184C321.212 158.569 321.8 158.325 322.342 158.637L328.182 162.009C328.724 162.322 329.014 163.074 328.831 163.688C328.648 164.303 328.06 164.548 327.518 164.235Z" fill="white"/>
<path d="M339.918 171.395L331.307 166.424C330.765 166.111 330.475 165.359 330.658 164.745C330.841 164.13 331.429 163.886 331.971 164.199L340.582 169.171C341.124 169.484 341.414 170.236 341.231 170.85C341.048 171.463 340.46 171.707 339.918 171.395Z" fill="white"/>
<path d="M321.802 133.602L318.154 131.496C317.612 131.183 317.322 130.431 317.505 129.817C317.688 129.202 318.276 128.958 318.818 129.271L322.466 131.377C323.008 131.69 323.298 132.442 323.115 133.056C322.932 133.67 322.344 133.915 321.802 133.602Z" fill="white"/>
<path d="M332.779 145.406L321.633 138.971C321.091 138.658 320.801 137.906 320.984 137.292C321.167 136.677 321.755 136.433 322.297 136.746L333.443 143.181C333.985 143.494 334.275 144.246 334.092 144.86C333.909 145.475 333.321 145.719 332.779 145.406Z" fill="white"/>
<path d="M322.499 150.404L318.851 148.298C318.309 147.985 318.019 147.233 318.202 146.619C318.385 146.004 318.973 145.76 319.515 146.073L323.163 148.179C323.705 148.492 323.995 149.244 323.812 149.858C323.628 150.472 323.04 150.717 322.499 150.404Z" fill="white"/>
<path d="M341.263 183.104L331.519 177.478C330.977 177.165 330.687 176.413 330.87 175.799C331.053 175.184 331.641 174.94 332.183 175.253L341.927 180.879C342.469 181.192 342.759 181.944 342.576 182.558C342.392 183.172 341.805 183.417 341.263 183.104Z" fill="white"/>
<path d="M318.41 158.977L316.068 157.625C315.526 157.312 315.236 156.56 315.419 155.946C315.602 155.331 316.19 155.087 316.732 155.4L319.074 156.752C319.616 157.065 319.906 157.817 319.723 158.431C319.539 159.045 318.952 159.289 318.41 158.977Z" fill="white"/>
<path d="M316.194 168.63L313.286 166.951C312.744 166.638 312.454 165.886 312.637 165.272C312.82 164.657 313.408 164.413 313.95 164.726L316.858 166.405C317.4 166.718 317.69 167.47 317.507 168.084C317.324 168.698 316.736 168.943 316.194 168.63Z" fill="white"/>
<path d="M327.507 175.162L319.84 170.736C319.298 170.423 319.008 169.671 319.191 169.057C319.374 168.442 319.962 168.198 320.504 168.511L328.171 172.937C328.713 173.25 329.003 174.002 328.82 174.616C328.637 175.23 328.049 175.475 327.507 175.162Z" fill="white"/>
<path d="M317.407 174.797L311.895 171.614C311.353 171.301 311.063 170.549 311.246 169.935C311.429 169.32 312.017 169.076 312.559 169.389L318.072 172.572C318.614 172.885 318.904 173.637 318.721 174.251C318.537 174.865 317.949 175.11 317.407 174.797Z" fill="white"/>
<path d="M349.622 187.954L346.082 185.91C345.54 185.597 345.25 184.845 345.433 184.231C345.616 183.616 346.204 183.372 346.746 183.685L350.286 185.729C350.828 186.042 351.118 186.794 350.935 187.408C350.752 188.022 350.164 188.266 349.622 187.954Z" fill="white"/>
<path d="M336.069 158.239L326.325 152.613C325.783 152.3 325.493 151.548 325.676 150.934C325.859 150.319 326.447 150.075 326.989 150.388L336.733 156.014C337.275 156.327 337.565 157.079 337.382 157.693C337.199 158.307 336.611 158.552 336.069 158.239Z" fill="white"/>
<path d="M337.224 153.439L320.242 143.634C319.7 143.321 319.41 142.569 319.593 141.955C319.776 141.34 320.364 141.096 320.906 141.409L337.888 151.214C338.43 151.527 338.72 152.279 338.537 152.893C338.354 153.507 337.766 153.752 337.224 153.439Z" fill="#E8975B"/>
<path d="M327.203 158.587L317.459 152.961C316.917 152.648 316.627 151.896 316.81 151.282C316.993 150.667 317.581 150.423 318.123 150.736L327.867 156.362C328.409 156.675 328.699 157.427 328.516 158.041C328.333 158.655 327.745 158.9 327.203 158.587Z" fill="#E8975B"/>
<path d="M343.459 162.506L339.919 160.462C339.377 160.149 339.087 159.397 339.27 158.783C339.453 158.168 340.041 157.924 340.583 158.237L344.123 160.281C344.665 160.594 344.955 161.346 344.772 161.96C344.589 162.574 344.001 162.819 343.459 162.506Z" fill="#E8975B"/>
<path d="M379.47 161.431L358.505 149.327C357.963 149.014 357.673 148.262 357.856 147.648C358.039 147.033 358.627 146.789 359.169 147.102L380.134 159.206C380.676 159.519 380.966 160.271 380.783 160.885C380.6 161.499 380.012 161.743 379.47 161.431Z" fill="#E8975B"/>
<path d="M326.39 169.05L314.677 162.288C314.135 161.975 313.845 161.223 314.028 160.609C314.211 159.994 314.799 159.75 315.341 160.062L327.054 166.824C327.596 167.137 327.886 167.889 327.703 168.503C327.52 169.118 326.932 169.363 326.39 169.05Z" fill="#F8359E"/>
<path d="M328.156 131.804L319.545 126.832C319.003 126.519 318.713 125.767 318.896 125.153C319.079 124.538 319.667 124.294 320.209 124.607L328.82 129.579C329.362 129.892 329.652 130.644 329.469 131.258C329.286 131.872 328.698 132.117 328.156 131.804Z" fill="#F8359E"/>
<path d="M315.606 179.224L305.633 173.466C305.091 173.153 304.801 172.401 304.984 171.787C305.167 171.172 305.755 170.928 306.297 171.24L316.27 176.998C316.812 177.311 317.102 178.063 316.919 178.677C316.736 179.292 316.148 179.537 315.606 179.224Z" fill="#E8975B"/>
<path d="M381.824 150.649L377.556 148.184C377.16 147.955 376.947 147.406 377.082 146.957C377.216 146.508 377.646 146.329 378.042 146.558L382.31 149.022C382.706 149.251 382.918 149.8 382.784 150.25C382.649 150.698 382.22 150.877 381.824 150.649Z" fill="white"/>
<path d="M389.966 155.35L385.697 152.885C385.301 152.656 385.089 152.107 385.223 151.658C385.357 151.209 385.787 151.03 386.183 151.259L390.451 153.723C390.847 153.952 391.059 154.501 390.925 154.95C390.792 155.399 390.362 155.578 389.966 155.35Z" fill="white"/>
<path d="M398.108 160.05L393.84 157.586C393.444 157.357 393.232 156.808 393.366 156.359C393.5 155.91 393.93 155.731 394.326 155.96L398.594 158.424C398.99 158.653 399.203 159.202 399.069 159.651C398.934 160.1 398.504 160.279 398.108 160.05Z" fill="white"/>
<path d="M402.11 162.364L401.982 162.287C401.586 162.058 401.374 161.509 401.508 161.06C401.642 160.611 402.072 160.432 402.468 160.661L402.596 160.738C402.992 160.967 403.204 161.516 403.07 161.965C402.936 162.414 402.506 162.593 402.11 162.364Z" fill="#F8359E"/>
<path d="M181.797 212.318C179.096 212.318 176.394 211.623 173.985 210.231L145.39 193.721C144.15 193.005 143.41 191.724 143.41 190.292C143.41 188.86 144.15 187.579 145.39 186.863L173.984 170.354C178.802 167.572 184.792 167.571 189.61 170.354L218.205 186.864C219.445 187.58 220.185 188.861 220.185 190.293C220.185 191.725 219.445 193.006 218.205 193.722L189.611 210.231C187.202 211.623 184.499 212.318 181.797 212.318ZM174.915 208.62C179.161 211.07 184.435 211.07 188.682 208.62L217.276 192.111C217.932 191.731 218.325 191.052 218.325 190.294C218.325 189.536 217.932 188.856 217.276 188.477L188.681 171.967C184.433 169.515 179.159 169.517 174.914 171.967L146.32 188.476C145.664 188.856 145.271 189.535 145.271 190.293C145.271 191.052 145.664 191.731 146.32 192.11L174.915 208.62Z" fill="url(#paint11_linear_1_2)"/>
<path opacity="0.6" d="M195.541 198.701C187.871 203.129 175.435 203.129 167.765 198.701C160.095 194.273 160.095 187.093 167.765 182.665C175.435 178.237 187.871 178.237 195.541 182.665C203.211 187.093 203.211 194.272 195.541 198.701Z" fill="#020230"/>
<path d="M210.767 109.863H154.825L160.028 170.432C160.028 173.796 162.251 177.16 166.697 179.727C175.589 184.861 190.005 184.861 198.896 179.727C203.342 177.16 205.565 173.796 205.564 170.432L210.767 109.863Z" fill="url(#paint12_radial_1_2)"/>
<path opacity="0.4" d="M210.767 109.863H154.825L155.681 119.828C156.963 121.472 158.688 123.048 160.866 124.492C171.556 131.583 189.194 132.95 201.23 127.843L199.369 172.143C199.288 174.074 198.621 175.952 197.37 177.425C195.558 179.558 192.067 182.067 185.356 183.486C190.303 183.165 195.104 181.918 198.897 179.728C203.343 177.161 205.566 173.797 205.565 170.433L209.738 121.858L210.767 109.863Z" fill="#06033E"/>
<path opacity="0.4" d="M182.796 126.012C198.244 126.012 210.767 118.782 210.767 109.863C210.767 100.944 198.244 93.714 182.796 93.714C167.348 93.714 154.825 100.944 154.825 109.863C154.825 118.782 167.348 126.012 182.796 126.012Z" fill="#06033E"/>
<path opacity="0.4" d="M182.796 118.081C196.102 118.081 206.888 111.853 206.888 104.171C206.888 96.4887 196.102 90.261 182.796 90.261C169.49 90.261 158.704 96.4887 158.704 104.171C158.704 111.853 169.49 118.081 182.796 118.081Z" fill="#06033E"/>
<path d="M212.424 109.102L212.427 109.106L212.422 109.057C212.42 109.029 212.416 109.002 212.414 108.974L211.877 103.551L211.854 103.612C211.614 99.507 208.787 95.443 203.36 92.31C192.003 85.753 173.59 85.753 162.234 92.31C156.67 95.523 153.839 99.713 153.728 103.923L153.721 103.909L153.209 108.738C153.195 108.864 153.178 108.989 153.169 109.115L153.161 109.194L153.166 109.19C152.859 113.791 155.742 118.449 161.826 121.961C173.408 128.648 192.187 128.648 203.77 121.961C209.89 118.427 212.773 113.732 212.424 109.102Z" fill="url(#paint13_linear_1_2)"/>
<path d="M182.796 118.081C196.102 118.081 206.888 111.853 206.888 104.171C206.888 96.4887 196.102 90.261 182.796 90.261C169.49 90.261 158.704 96.4887 158.704 104.171C158.704 111.853 169.49 118.081 182.796 118.081Z" fill="url(#paint14_linear_1_2)"/>
<path d="M181.653 118.081C194.959 118.081 205.745 111.853 205.745 104.171C205.745 96.4887 194.959 90.261 181.653 90.261C168.347 90.261 157.561 96.4887 157.561 104.171C157.561 111.853 168.347 118.081 181.653 118.081Z" fill="url(#paint15_linear_1_2)"/>
<path opacity="0.4" d="M168.618 96.407C178.026 90.975 193.281 90.975 202.689 96.407C202.809 96.476 202.909 96.552 203.026 96.622C202.118 95.813 201.059 95.044 199.831 94.335C190.422 88.903 175.168 88.903 165.76 94.335C156.471 99.698 156.371 108.344 165.423 113.791C159.379 108.402 160.438 101.13 168.618 96.407Z" fill="#06033E"/>
<path d="M165.76 96.749C175.169 91.317 190.423 91.317 199.832 96.749C204.004 99.158 206.322 102.23 206.794 105.378C207.386 101.427 205.068 97.358 199.832 94.335C190.423 88.903 175.169 88.903 165.76 94.335C160.524 97.358 158.206 101.427 158.798 105.377C159.27 102.23 161.588 99.158 165.76 96.749Z" fill="url(#paint16_linear_1_2)"/>
<path d="M203.539 92.437C192.198 85.756 173.718 85.593 162.262 92.074C150.806 98.554 150.713 109.224 162.053 115.905C173.393 122.586 191.873 122.749 203.33 116.269C214.786 109.788 214.879 99.118 203.539 92.437ZM199.832 114.007C196.689 115.822 192.889 117.016 188.877 117.618L188.44 116.181C188.263 115.601 187.728 115.204 187.122 115.204H178.471C177.865 115.204 177.329 115.601 177.153 116.181L176.716 117.618C172.704 117.016 168.905 115.822 165.762 114.007C156.353 108.575 156.353 99.768 165.761 94.336C175.169 88.904 190.424 88.904 199.832 94.336C209.24 99.768 209.24 108.575 199.832 114.007Z" fill="url(#paint17_radial_1_2)"/>
<path d="M199.831 93.306C190.422 87.874 175.168 87.874 165.76 93.306C160.829 96.153 158.487 99.927 158.725 103.656C158.941 100.27 161.283 96.921 165.76 94.336C175.168 88.904 190.423 88.904 199.831 94.336C204.308 96.921 206.65 100.27 206.866 103.657C207.105 99.927 204.763 96.153 199.831 93.306Z" fill="white"/>
<path d="M203.329 115.238C191.873 121.718 173.393 121.556 162.052 114.874C156.656 111.695 153.854 107.612 153.628 103.507C153.405 107.952 156.204 112.458 162.052 115.904C173.393 122.585 191.873 122.748 203.329 116.268C209.333 112.872 212.211 108.324 211.962 103.803C211.753 107.979 208.878 112.1 203.329 115.238Z" fill="white"/>
<path d="M185.381 118.366H180.21C179.849 118.366 179.557 118.073 179.557 117.713V117.622C179.557 117.261 179.849 116.968 180.21 116.968H185.381C185.742 116.968 186.034 117.261 186.034 117.622V117.713C186.035 118.073 185.742 118.366 185.381 118.366Z" fill="#0C0A78"/>
<path d="M185.381 116.968H180.21C179.849 116.968 179.557 117.261 179.557 117.622V117.713C179.557 117.775 179.576 117.83 179.592 117.887C179.669 117.613 179.911 117.408 180.21 117.408H185.381C185.68 117.408 185.922 117.613 185.999 117.887C186.015 117.83 186.034 117.775 186.034 117.713V117.622C186.035 117.26 185.742 116.968 185.381 116.968Z" fill="url(#paint18_linear_1_2)"/>
<path d="M183.588 164.21C182.954 166.595 180.506 168.015 178.12 167.381C175.735 166.747 174.315 164.299 174.949 161.914C175.583 159.529 177.833 158.853 180.219 159.487C182.605 160.121 184.222 161.825 183.588 164.21Z" fill="#E8975B"/>
<path d="M187.106 159.502C186.206 160.381 185.055 160.268 184.291 159.486C183.527 158.705 183.44 157.551 184.339 156.672C185.239 155.793 186.949 155.359 187.713 156.141C188.478 156.923 188.006 158.623 187.106 159.502Z" fill="#E8975B"/>
<path d="M182.432 155.763C182.212 157.002 181.209 157.579 180.133 157.387C179.057 157.196 178.315 156.308 178.536 155.069C178.756 153.83 179.896 152.483 180.972 152.675C182.048 152.867 182.653 154.525 182.432 155.763Z" fill="#E8975B"/>
<path d="M176.671 155.191C177.15 156.355 176.613 157.379 175.603 157.795C174.592 158.211 173.49 157.86 173.011 156.697C172.532 155.534 172.771 153.785 173.782 153.369C174.792 152.953 176.192 154.028 176.671 155.191Z" fill="#E8975B"/>
<path opacity="0.5" d="M184.628 117.667C184.628 117.667 200.268 112.426 193.935 94.455C187.602 76.484 175.273 71.007 180.24 56.631C180.24 56.631 172.456 68.269 179.73 84.015C187.004 99.761 188.599 97.952 188.514 105.483C188.412 114.43 181.185 117.668 181.185 117.668L184.628 117.667Z" fill="white"/>
<path opacity="0.5" d="M186.035 59.131C186.035 59.131 184.407 48.381 194.49 37.548C194.49 37.548 185.573 57.465 188.49 67.298C188.49 67.298 186.131 61.047 186.035 59.131Z" fill="white"/>
</g>
<defs>
<radialGradient id="paint0_radial_1_2" cx="0" cy="0" r="1" gradientUnits="userSpaceOnUse" gradientTransform="translate(66.1885 -102.14) scale(796.413 798.026)">
<stop offset="0.004" stop-color="#4C02F1"/>
<stop offset="0.0082" stop-color="#4B02EF"/>
<stop offset="0.1263" stop-color="#3903C4"/>
<stop offset="0.2487" stop-color="#29039E"/>
<stop offset="0.3765" stop-color="#1D0380"/>
<stop offset="0.5099" stop-color="#130468"/>
<stop offset="0.6513" stop-color="#0C0457"/>
<stop offset="0.8062" stop-color="#07044D"/>
<stop offset="1" stop-color="#06044A"/>
</radialGradient>
<linearGradient id="paint1_linear_1_2" x1="481.059" y1="306.916" x2="513.67" y2="306.916" gradientUnits="userSpaceOnUse">
<stop stop-color="#E39A65"/>
<stop offset="1" stop-color="#E95F8D"/>
</linearGradient>
<linearGradient id="paint2_linear_1_2" x1="436.408" y1="262.223" x2="491.186" y2="262.223" gradientUnits="userSpaceOnUse">
<stop stop-color="#E39A65"/>
<stop offset="1" stop-color="#E95F8D"/>
</linearGradient>
<linearGradient id="paint3_linear_1_2" x1="75.1851" y1="280.575" x2="129.963" y2="280.575" gradientUnits="userSpaceOnUse">
<stop stop-color="#E39A65"/>
<stop offset="1" stop-color="#E95F8D"/>
</linearGradient>
<linearGradient id="paint4_linear_1_2" x1="138.959" y1="277.062" x2="431.318" y2="277.062" gradientUnits="userSpaceOnUse">
<stop stop-color="#E39A65"/>
<stop offset="1" stop-color="#E95F8D"/>
</linearGradient>
<radialGradient id="paint5_radial_1_2" cx="0" cy="0" r="1" gradientUnits="userSpaceOnUse" gradientTransform="translate(300.446 60.6072) scale(223.296)">
<stop stop-color="#E39A65"/>
<stop offset="0.4742" stop-color="#A92FFB"/>
<stop offset="0.5947" stop-color="#891CFB"/>
<stop offset="0.7421" stop-color="#6507FA"/>
<stop offset="0.8016" stop-color="#0D0C6F"/>
</radialGradient>
<radialGradient id="paint6_radial_1_2" cx="0" cy="0" r="1" gradientUnits="userSpaceOnUse" gradientTransform="translate(163.873 239.93) scale(244.172)">
<stop stop-color="#E39A65"/>
<stop offset="0.4742" stop-color="#A92FFB"/>
<stop offset="0.5679" stop-color="#891CFB"/>
<stop offset="0.6825" stop-color="#6507FA"/>
<stop offset="0.7381" stop-color="#0D0C6F"/>
</radialGradient>
<radialGradient id="paint7_radial_1_2" cx="0" cy="0" r="1" gradientUnits="userSpaceOnUse" gradientTransform="translate(186.33 190.921) scale(218.96 218.96)">
<stop stop-color="#E39A65"/>
<stop offset="0.4742" stop-color="#A92FFB"/>
<stop offset="0.5875" stop-color="#891CFB"/>
<stop offset="0.7262" stop-color="#6507FA"/>
<stop offset="1" stop-color="#3919BB"/>
</radialGradient>
<radialGradient id="paint8_radial_1_2" cx="0" cy="0" r="1" gradientUnits="userSpaceOnUse" gradientTransform="translate(240.878 107.185) scale(223.341)">
<stop stop-color="#E39A65"/>
<stop offset="0.4742" stop-color="#A92FFB"/>
<stop offset="0.5875" stop-color="#891CFB"/>
<stop offset="0.7262" stop-color="#6507FA"/>
<stop offset="1" stop-color="#3919BB"/>
</radialGradient>
<linearGradient id="paint9_linear_1_2" x1="265.426" y1="165.812" x2="444.392" y2="165.812" gradientUnits="userSpaceOnUse">
<stop stop-color="#3919BB"/>
<stop offset="1" stop-color="#6507FA"/>
</linearGradient>
<radialGradient id="paint10_radial_1_2" cx="0" cy="0" r="1" gradientUnits="userSpaceOnUse" gradientTransform="translate(159.346 59.4914) scale(347.847 347.848)">
<stop stop-color="#E39A65"/>
<stop offset="0.4742" stop-color="#A92FFB"/>
<stop offset="0.5875" stop-color="#891CFB"/>
<stop offset="0.7262" stop-color="#6507FA"/>
<stop offset="1" stop-color="#3919BB"/>
</radialGradient>
<linearGradient id="paint11_linear_1_2" x1="143.41" y1="190.294" x2="220.185" y2="190.294" gradientUnits="userSpaceOnUse">
<stop stop-color="#E39A65"/>
<stop offset="1" stop-color="#E95F8D"/>
</linearGradient>
<radialGradient id="paint12_radial_1_2" cx="0" cy="0" r="1" gradientUnits="userSpaceOnUse" gradientTransform="translate(150.216 127.668) scale(165.349 165.349)">
<stop stop-color="#E39A65"/>
<stop offset="0.1528" stop-color="#A92FFB"/>
<stop offset="0.4087" stop-color="#3919BB"/>
<stop offset="0.9311" stop-color="#3919BB"/>
</radialGradient>
<linearGradient id="paint13_linear_1_2" x1="153.143" y1="107.185" x2="212.452" y2="107.185" gradientUnits="userSpaceOnUse">
<stop stop-color="#E39A65"/>
<stop offset="0.252" stop-color="#A92FFB"/>
<stop offset="0.5556" stop-color="#3919BB"/>
</linearGradient>
<linearGradient id="paint14_linear_1_2" x1="158.704" y1="104.171" x2="206.888" y2="104.171" gradientUnits="userSpaceOnUse">
<stop stop-color="#4F1FEC"/>
<stop offset="1" stop-color="#A92FFB"/>
</linearGradient>
<linearGradient id="paint15_linear_1_2" x1="157.561" y1="104.171" x2="205.745" y2="104.171" gradientUnits="userSpaceOnUse">
<stop stop-color="#4F1FEC"/>
<stop offset="1" stop-color="#A92FFB"/>
</linearGradient>
<linearGradient id="paint16_linear_1_2" x1="158.708" y1="97.82" x2="219.46" y2="97.82" gradientUnits="userSpaceOnUse">
<stop stop-color="#131060"/>
<stop offset="0.1857" stop-color="#141062"/>
<stop offset="0.2823" stop-color="#19106A"/>
<stop offset="0.3584" stop-color="#221078"/>
<stop offset="0.4238" stop-color="#2E0F8B"/>
<stop offset="0.4823" stop-color="#3E0FA3"/>
<stop offset="0.5359" stop-color="#510EC2"/>
<stop offset="0.5847" stop-color="#680DE5"/>
<stop offset="0.6071" stop-color="#740DF8"/>
<stop offset="0.6179" stop-color="#7A14F0"/>
<stop offset="0.6826" stop-color="#9B3CC3"/>
<stop offset="0.7477" stop-color="#B75D9D"/>
<stop offset="0.8123" stop-color="#CC7680"/>
<stop offset="0.8762" stop-color="#DC886C"/>
<stop offset="0.9391" stop-color="#E5935F"/>
<stop offset="1" stop-color="#E8975B"/>
</linearGradient>
<radialGradient id="paint17_radial_1_2" cx="0" cy="0" r="1" gradientUnits="userSpaceOnUse" gradientTransform="translate(145.74 90.4045) scale(108.165 108.165)">
<stop stop-color="#E39A65"/>
<stop offset="0.252" stop-color="#A92FFB"/>
<stop offset="0.7357" stop-color="#3919BB"/>
</radialGradient>
<linearGradient id="paint18_linear_1_2" x1="178.983" y1="117.427" x2="187.387" y2="117.427" gradientUnits="userSpaceOnUse">
<stop stop-color="#131060"/>
<stop offset="0.1857" stop-color="#141062"/>
<stop offset="0.2823" stop-color="#19106A"/>
<stop offset="0.3584" stop-color="#221078"/>
<stop offset="0.4238" stop-color="#2E0F8B"/>
<stop offset="0.4823" stop-color="#3E0FA3"/>
<stop offset="0.5359" stop-color="#510EC2"/>
<stop offset="0.5847" stop-color="#680DE5"/>
<stop offset="0.6071" stop-color="#740DF8"/>
<stop offset="0.6179" stop-color="#7A14F0"/>
<stop offset="0.6826" stop-color="#9B3CC3"/>
<stop offset="0.7477" stop-color="#B75D9D"/>
<stop offset="0.8123" stop-color="#CC7680"/>
<stop offset="0.8762" stop-color="#DC886C"/>
<stop offset="0.9391" stop-color="#E5935F"/>
<stop offset="1" stop-color="#E8975B"/>
</linearGradient>
<clipPath id="clip0_1_2">
<rect width="600" height="450" fill="white"/>
</clipPath>
</defs>
</svg>
